M48
;Layer_Color=9474304
;FILE_FORMAT=4:4
METRIC,LZ
;TYPE=PLATED
T01F00S00C0.6000
T02F00S00C0.7000
T03F00S00C0.7112
T04F00S00C0.7500
T05F00S00C0.8000
T06F00S00C0.9000
T07F00S00C1.0000
T08F00S00C1.0500
T09F00S00C1.1000
T10F00S00C1.3000
T11F00S00C1.4000
%
T01
X0111506Y0090932
X0114046
X0116586
Y0098802
X0114046
X0111506
X0119126
Y0090932
X01354922Y00919042
Y00944042
Y00969042
X01376426Y00996864
X01401426
X01426426
X01451426
X01476426
X01501426
X01526426
X01551426
X01576426
Y00816864
X01551426
X01526426
X01501426
X01476426
X01451426
X01426426
X01401426
X01376426
X01354922Y00844042
Y00869042
Y00894042
X01601426Y00816864
X01626426
X01651426
Y00996864
X01626426
X01601426
T02
X0161036Y0075692
X0163576
X0166116
X0168656
X0171196
X0173736
X01552908Y0075651
X01527508
X01502108
X01476708
X0059944Y0075311
Y0072771
Y0070231
Y0077851
X0077724Y0093091
X0080264
X0082804
X0106172Y009144
Y00889
Y008636
Y008382
X0117856Y0084836
X0120396
X0122936
X0144018Y0121412
X0146558
X0149098
X0151638
X0154178
X0156718
X0088138Y0119507
X0085598
X0083058
X0080518
T03
X00779526Y01130554
T04
X0141224Y0111979
X0143764Y0109439
X0146304Y0111979
X015367
X015621Y0109439
X015875Y0111979
T05
X006223Y0115697
X0063627Y011684
X006477Y0115697
X0067818Y0118999
X0070358
X0072898Y0115697
X0074295Y011684
X0075438Y0115697
X0069215Y0120142
T06
X004826Y0104307
X0053086
Y0109307
X004826
X0116372Y0108966
X0117308Y0103886
X0112308
X0121372Y0108966
T07
X0092044Y0071541
Y0076541
X0077544
Y0074041
Y0071541
T08
X0060254Y0103759
X0069794
X0068382Y0098933
X0077922
X0091186Y0105847
Y0115387
T09
X0072644Y0105791
X0086144
T10
X0048288Y0096347
X0051788
X0060734
X0064234
X012652Y0118156
X013002
T11
X0059436Y0109855
X0061976
X0064516
M30
