G04*
G04 #@! TF.GenerationSoftware,Altium Limited,Altium Designer,24.4.1 (13)*
G04*
G04 Layer_Physical_Order=1*
G04 Layer_Color=255*
%FSLAX44Y44*%
%MOMM*%
G71*
G04*
G04 #@! TF.SameCoordinates,D16DE8F3-FD65-4EAC-9AAE-F1089B62832C*
G04*
G04*
G04 #@! TF.FilePolarity,Positive*
G04*
G01*
G75*
%ADD10R,1.4000X1.2000*%
%ADD11R,1.2000X1.4000*%
%ADD12C,0.7620*%
%ADD13R,1.7000X1.1000*%
%ADD14C,1.2000*%
%ADD15R,1.2000X1.2000*%
%ADD16R,1.2000X1.2000*%
%ADD17C,1.9500*%
G04:AMPARAMS|DCode=18|XSize=1.95mm|YSize=1.95mm|CornerRadius=0.4875mm|HoleSize=0mm|Usage=FLASHONLY|Rotation=180.000|XOffset=0mm|YOffset=0mm|HoleType=Round|Shape=RoundedRectangle|*
%AMROUNDEDRECTD18*
21,1,1.9500,0.9750,0,0,180.0*
21,1,0.9750,1.9500,0,0,180.0*
1,1,0.9750,-0.4875,0.4875*
1,1,0.9750,0.4875,0.4875*
1,1,0.9750,0.4875,-0.4875*
1,1,0.9750,-0.4875,-0.4875*
%
%ADD18ROUNDEDRECTD18*%
%ADD19C,1.2500*%
%ADD20R,1.2500X1.2500*%
%ADD21R,1.4000X1.4000*%
%ADD22C,1.4000*%
%ADD23C,1.5500*%
%ADD24R,1.0500X1.0500*%
%ADD25C,1.0500*%
%ADD26C,2.1500*%
%ADD27R,2.1500X2.1500*%
%ADD28R,1.4000X1.4000*%
%ADD29C,2.0000*%
%ADD30R,2.0000X2.0000*%
%ADD31C,1.2700*%
%ADD32R,1.5500X1.5500*%
G04:AMPARAMS|DCode=33|XSize=2.4mm|YSize=5mm|CornerRadius=1.2mm|HoleSize=0mm|Usage=FLASHONLY|Rotation=270.000|XOffset=0mm|YOffset=0mm|HoleType=Round|Shape=RoundedRectangle|*
%AMROUNDEDRECTD33*
21,1,2.4000,2.6000,0,0,270.0*
21,1,0.0000,5.0000,0,0,270.0*
1,1,2.4000,-1.3000,0.0000*
1,1,2.4000,-1.3000,0.0000*
1,1,2.4000,1.3000,0.0000*
1,1,2.4000,1.3000,0.0000*
%
%ADD33ROUNDEDRECTD33*%
G36*
X967740Y895350D02*
X416560D01*
Y1268730D01*
X967740D01*
Y895350D01*
D02*
G37*
G36*
X1778000Y695960D02*
X1005840D01*
Y1270000D01*
X1778000D01*
Y695960D01*
D02*
G37*
G36*
X966470Y636270D02*
X562610D01*
Y852170D01*
X966470D01*
Y636270D01*
D02*
G37*
%LPC*%
G36*
X904240Y1221610D02*
X822960D01*
X820482Y1221118D01*
X818382Y1219714D01*
X801439Y1202771D01*
X799936Y1201904D01*
X798346Y1200314D01*
X797222Y1198366D01*
X796679Y1196340D01*
X805180D01*
X813681D01*
X813605Y1196625D01*
X825642Y1208662D01*
X901558D01*
X905386Y1204834D01*
Y1161948D01*
X903626Y1160188D01*
X902271Y1157842D01*
X901570Y1155225D01*
Y1155140D01*
X911860D01*
X922150D01*
Y1155225D01*
X921449Y1157842D01*
X920094Y1160188D01*
X918334Y1161948D01*
Y1207516D01*
X917842Y1209994D01*
X916438Y1212094D01*
X908818Y1219714D01*
X906718Y1221118D01*
X904240Y1221610D01*
D02*
G37*
G36*
X693176Y1209210D02*
X691124D01*
X689143Y1208679D01*
X687367Y1207654D01*
X685917Y1206203D01*
X684891Y1204427D01*
X684360Y1202446D01*
Y1200394D01*
X684720Y1199050D01*
X683898Y1197780D01*
X670390D01*
Y1182200D01*
X685970D01*
Y1194924D01*
X687143Y1195410D01*
X687367Y1195186D01*
X689143Y1194161D01*
X691124Y1193630D01*
X693176D01*
X695157Y1194161D01*
X695711Y1194481D01*
X696641Y1193551D01*
X696321Y1192997D01*
X695790Y1191016D01*
Y1188964D01*
X696321Y1186983D01*
X697346Y1185207D01*
X698797Y1183756D01*
X700573Y1182731D01*
X702554Y1182200D01*
X704606D01*
X706587Y1182731D01*
X707946Y1183516D01*
X770258D01*
X781705Y1172068D01*
Y1169050D01*
X779640D01*
Y1152522D01*
X767984D01*
X762045Y1158461D01*
X761639Y1159977D01*
X760613Y1161753D01*
X759163Y1163204D01*
X757387Y1164229D01*
X755650Y1164695D01*
Y1156970D01*
X753110D01*
Y1164695D01*
X751373Y1164229D01*
X750819Y1163909D01*
X749889Y1164839D01*
X750209Y1165393D01*
X750740Y1167374D01*
Y1169426D01*
X750209Y1171407D01*
X749184Y1173183D01*
X747733Y1174633D01*
X745957Y1175659D01*
X743976Y1176190D01*
X741924D01*
X739943Y1175659D01*
X738167Y1174633D01*
X736717Y1173183D01*
X735691Y1171407D01*
X735160Y1169426D01*
Y1167374D01*
X735520Y1166030D01*
X734761Y1164858D01*
X734591Y1164760D01*
X721190D01*
Y1158336D01*
X705098Y1142244D01*
X703694Y1140144D01*
X703202Y1137666D01*
Y1116470D01*
X686420D01*
Y1114405D01*
X675114D01*
X672637Y1113912D01*
X670536Y1112508D01*
X663052Y1105024D01*
X658450D01*
Y1111840D01*
X631870D01*
Y1106608D01*
X630643Y1106280D01*
X630395Y1106710D01*
X627920Y1109185D01*
X624890Y1110934D01*
X621510Y1111840D01*
X618602D01*
X618076Y1113110D01*
X626878Y1121912D01*
X628282Y1124012D01*
X628774Y1126490D01*
Y1149180D01*
X630090D01*
Y1161904D01*
X631263Y1162390D01*
X631487Y1162167D01*
X633263Y1161141D01*
X635244Y1160610D01*
X637296D01*
X639277Y1161141D01*
X639831Y1161461D01*
X640761Y1160531D01*
X640441Y1159977D01*
X639910Y1157996D01*
Y1155944D01*
X640441Y1153963D01*
X641467Y1152187D01*
X642917Y1150736D01*
X644693Y1149711D01*
X646674Y1149180D01*
X648726D01*
X650707Y1149711D01*
X652483Y1150736D01*
X653933Y1152187D01*
X654959Y1153963D01*
X655490Y1155944D01*
Y1157996D01*
X654959Y1159977D01*
X653933Y1161753D01*
X652483Y1163204D01*
X650707Y1164229D01*
X648726Y1164760D01*
X646674D01*
X644693Y1164229D01*
X644139Y1163909D01*
X643209Y1164839D01*
X643529Y1165393D01*
X644060Y1167374D01*
Y1169426D01*
X643529Y1171407D01*
X642504Y1173183D01*
X641053Y1174633D01*
X639277Y1175659D01*
X637296Y1176190D01*
X635244D01*
X633263Y1175659D01*
X631487Y1174633D01*
X630037Y1173183D01*
X629011Y1171407D01*
X628480Y1169426D01*
Y1167374D01*
X628840Y1166030D01*
X628018Y1164760D01*
X614510D01*
Y1149180D01*
X615826D01*
Y1129172D01*
X597990Y1111336D01*
X596110Y1111840D01*
X592610D01*
X589230Y1110934D01*
X586200Y1109185D01*
X583725Y1106710D01*
X581976Y1103680D01*
X581070Y1100300D01*
Y1096800D01*
X581976Y1093420D01*
X583725Y1090390D01*
X586200Y1087915D01*
X587886Y1086942D01*
Y1045770D01*
X588378Y1043292D01*
X589782Y1041192D01*
X592250Y1038724D01*
Y1036235D01*
X592951Y1033618D01*
X594306Y1031272D01*
X596065Y1029512D01*
Y1003270D01*
X596558Y1000793D01*
X597962Y998692D01*
X630370Y966284D01*
X630050Y965088D01*
Y961852D01*
X630888Y958727D01*
X632506Y955924D01*
X634794Y953636D01*
X637596Y952018D01*
X640722Y951180D01*
X643958D01*
X647084Y952018D01*
X649886Y953636D01*
X652175Y955924D01*
X652793Y956996D01*
X735124D01*
X737602Y957489D01*
X739702Y958892D01*
X747528Y966718D01*
X748932Y968818D01*
X749424Y971296D01*
Y1008310D01*
X750598Y1008796D01*
X768794Y990600D01*
X777950D01*
Y999756D01*
X759584Y1018122D01*
Y1082390D01*
X776620D01*
Y1084456D01*
X782320D01*
X784798Y1084948D01*
X786898Y1086352D01*
X822204Y1121658D01*
X822836Y1122603D01*
X824106Y1122218D01*
Y1115590D01*
X821040D01*
Y1096525D01*
X804418D01*
X801940Y1096032D01*
X799840Y1094628D01*
X799586Y1094374D01*
X798182Y1092274D01*
X797690Y1089796D01*
Y966104D01*
X785616Y954030D01*
X784984Y953085D01*
X783714Y953470D01*
Y956422D01*
X783798Y956506D01*
X785202Y958606D01*
X785695Y961084D01*
Y981252D01*
X787454Y983012D01*
X788809Y985358D01*
X789510Y987975D01*
Y988060D01*
X768930D01*
Y987975D01*
X769631Y985358D01*
X770986Y983012D01*
X772746Y981252D01*
Y963766D01*
X772662Y963682D01*
X771258Y961582D01*
X770766Y959104D01*
Y936513D01*
X770406Y936154D01*
X769282Y934206D01*
X768739Y932180D01*
X777240D01*
Y930910D01*
X778510D01*
Y922409D01*
X780536Y922952D01*
X782484Y924076D01*
X782546Y924139D01*
X783720Y923653D01*
Y923544D01*
X784212Y921066D01*
X785616Y918966D01*
X793490Y911092D01*
X795590Y909688D01*
X798068Y909196D01*
X812800D01*
X815278Y909688D01*
X817378Y911092D01*
X828656Y922370D01*
X829164D01*
X831336Y922952D01*
X833284Y924076D01*
X834874Y925666D01*
X835998Y927614D01*
X836580Y929786D01*
Y930294D01*
X866018Y959732D01*
X867422Y961832D01*
X867914Y964310D01*
Y1047168D01*
X869140Y1047876D01*
X871475Y1050210D01*
X873125Y1053070D01*
X873980Y1056259D01*
Y1059561D01*
X873125Y1062750D01*
X871475Y1065610D01*
X869140Y1067944D01*
X866280Y1069595D01*
X863091Y1070450D01*
X859789D01*
X856600Y1069595D01*
X856410Y1069486D01*
X855630Y1070502D01*
X858018Y1072890D01*
X859422Y1074990D01*
X859914Y1077468D01*
Y1116188D01*
X865490Y1121764D01*
X866760Y1121238D01*
Y1113300D01*
X876300D01*
Y1112030D01*
X877570D01*
Y1103490D01*
X885840D01*
Y1105937D01*
X886398Y1106048D01*
X888498Y1107452D01*
X916438Y1135392D01*
X917842Y1137492D01*
X918334Y1139970D01*
Y1145792D01*
X920094Y1147552D01*
X921449Y1149898D01*
X922150Y1152515D01*
Y1152600D01*
X911860D01*
X901570D01*
Y1152515D01*
X902271Y1149898D01*
X903626Y1147552D01*
X905386Y1145792D01*
Y1142652D01*
X887013Y1124279D01*
X885840Y1124765D01*
Y1137570D01*
X884934D01*
X884098Y1138525D01*
X887798Y1166274D01*
X887770Y1166706D01*
X887854Y1167130D01*
Y1186530D01*
X889920D01*
Y1203610D01*
X872840D01*
Y1186530D01*
X874906D01*
Y1167560D01*
X870907Y1137570D01*
X866760D01*
Y1135504D01*
X863600D01*
X861122Y1135012D01*
X859022Y1133608D01*
X848862Y1123448D01*
X847458Y1121348D01*
X846966Y1118870D01*
Y1080150D01*
X817112Y1050296D01*
X815708Y1048196D01*
X815216Y1045718D01*
Y952642D01*
X802024Y939450D01*
X801516D01*
X799344Y938868D01*
X797938Y938057D01*
X796668Y938723D01*
Y946770D01*
X808742Y958844D01*
X810146Y960944D01*
X810638Y963422D01*
Y1083576D01*
X821040D01*
Y1081510D01*
X840120D01*
Y1098510D01*
Y1115590D01*
X837054D01*
Y1166988D01*
X856596Y1186530D01*
X857104D01*
X859276Y1187112D01*
X861224Y1188236D01*
X862814Y1189826D01*
X863938Y1191774D01*
X864520Y1193946D01*
Y1196194D01*
X863938Y1198366D01*
X862814Y1200314D01*
X861224Y1201904D01*
X859276Y1203028D01*
X857104Y1203610D01*
X854856D01*
X852684Y1203028D01*
X850736Y1201904D01*
X849146Y1200314D01*
X848022Y1198366D01*
X847440Y1196194D01*
Y1195686D01*
X826002Y1174248D01*
X825370Y1173303D01*
X824100Y1173688D01*
Y1179434D01*
X831196Y1186530D01*
X831704D01*
X833876Y1187112D01*
X835824Y1188236D01*
X837414Y1189826D01*
X838538Y1191774D01*
X839120Y1193946D01*
Y1196194D01*
X838538Y1198366D01*
X837414Y1200314D01*
X835824Y1201904D01*
X833876Y1203028D01*
X831704Y1203610D01*
X829456D01*
X827284Y1203028D01*
X825336Y1201904D01*
X823746Y1200314D01*
X822622Y1198366D01*
X822040Y1196194D01*
Y1195686D01*
X813048Y1186694D01*
X812870Y1186427D01*
X811654Y1186796D01*
Y1189467D01*
X812014Y1189826D01*
X813138Y1191774D01*
X813681Y1193800D01*
X805180D01*
X796679D01*
X797222Y1191774D01*
X798346Y1189826D01*
X798706Y1189467D01*
Y1177290D01*
Y1169050D01*
X794654D01*
Y1174750D01*
X794161Y1177228D01*
X792758Y1179328D01*
X777518Y1194568D01*
X775417Y1195972D01*
X772940Y1196464D01*
X707946D01*
X706587Y1197249D01*
X704606Y1197780D01*
X702554D01*
X700573Y1197249D01*
X700019Y1196929D01*
X699089Y1197859D01*
X699409Y1198413D01*
X699940Y1200394D01*
Y1202446D01*
X699409Y1204427D01*
X698383Y1206203D01*
X696933Y1207654D01*
X695157Y1208679D01*
X693176Y1209210D01*
D02*
G37*
G36*
X875030Y1110760D02*
X866760D01*
Y1103490D01*
X875030D01*
Y1110760D01*
D02*
G37*
G36*
X540400Y1102610D02*
X521320D01*
Y1083530D01*
X540400D01*
Y1102610D01*
D02*
G37*
G36*
X492140D02*
X473060D01*
Y1083530D01*
X492140D01*
Y1102610D01*
D02*
G37*
G36*
X913215Y1068760D02*
X910505D01*
X907888Y1068059D01*
X905542Y1066704D01*
X903626Y1064788D01*
X902271Y1062442D01*
X901570Y1059825D01*
Y1057115D01*
X902271Y1054498D01*
X903626Y1052152D01*
X905542Y1050236D01*
X907888Y1048881D01*
X910505Y1048180D01*
X913215D01*
X915832Y1048881D01*
X918178Y1050236D01*
X920094Y1052152D01*
X921449Y1054498D01*
X922150Y1057115D01*
Y1059825D01*
X921449Y1062442D01*
X920094Y1064788D01*
X918178Y1066704D01*
X915832Y1068059D01*
X913215Y1068760D01*
D02*
G37*
G36*
X532130Y1052606D02*
Y1044340D01*
X540396D01*
X539750Y1046752D01*
X538494Y1048928D01*
X536718Y1050704D01*
X534542Y1051960D01*
X532130Y1052606D01*
D02*
G37*
G36*
X483870D02*
Y1044340D01*
X492136D01*
X491490Y1046752D01*
X490234Y1048928D01*
X488458Y1050704D01*
X486282Y1051960D01*
X483870Y1052606D01*
D02*
G37*
G36*
X529590D02*
X527178Y1051960D01*
X525002Y1050704D01*
X523226Y1048928D01*
X521970Y1046752D01*
X521324Y1044340D01*
X529590D01*
Y1052606D01*
D02*
G37*
G36*
X481330D02*
X478918Y1051960D01*
X476742Y1050704D01*
X474966Y1048928D01*
X473710Y1046752D01*
X473064Y1044340D01*
X481330D01*
Y1052606D01*
D02*
G37*
G36*
X540396Y1041800D02*
X532130D01*
Y1033534D01*
X534542Y1034180D01*
X536718Y1035436D01*
X538494Y1037212D01*
X539750Y1039388D01*
X540396Y1041800D01*
D02*
G37*
G36*
X529590D02*
X521324D01*
X521970Y1039388D01*
X523226Y1037212D01*
X525002Y1035436D01*
X527178Y1034180D01*
X529590Y1033534D01*
Y1041800D01*
D02*
G37*
G36*
X780575Y999620D02*
X780490D01*
Y990600D01*
X789510D01*
Y990685D01*
X788809Y993302D01*
X787454Y995648D01*
X785538Y997564D01*
X783192Y998919D01*
X780575Y999620D01*
D02*
G37*
G36*
X612215Y975824D02*
X608610D01*
Y964740D01*
X619694D01*
Y968345D01*
X619439Y970281D01*
X618692Y972085D01*
X617503Y973634D01*
X615954Y974822D01*
X614151Y975569D01*
X612215Y975824D01*
D02*
G37*
G36*
X606070D02*
X602465D01*
X600529Y975569D01*
X598725Y974822D01*
X597177Y973634D01*
X595988Y972085D01*
X595241Y970281D01*
X594986Y968345D01*
Y964740D01*
X606070D01*
Y975824D01*
D02*
G37*
G36*
X492136Y1041800D02*
X482600D01*
X473064D01*
X473710Y1039388D01*
X474966Y1037212D01*
X476126Y1036053D01*
Y1003326D01*
X476405Y1001919D01*
Y975614D01*
X476069Y975569D01*
X474265Y974822D01*
X472716Y973634D01*
X471528Y972085D01*
X470781Y970281D01*
X470526Y968345D01*
Y964740D01*
X495234D01*
Y968345D01*
X494979Y970281D01*
X494232Y972085D01*
X493043Y973634D01*
X491494Y974822D01*
X489691Y975569D01*
X489354Y975614D01*
Y1003046D01*
X489074Y1004453D01*
Y1036053D01*
X490234Y1037212D01*
X491490Y1039388D01*
X492136Y1041800D01*
D02*
G37*
G36*
X519498Y975760D02*
X516262D01*
X513136Y974923D01*
X510334Y973305D01*
X508046Y971016D01*
X506428Y968214D01*
X505590Y965088D01*
Y961852D01*
X506428Y958727D01*
X508046Y955924D01*
X510334Y953636D01*
X513136Y952018D01*
X516262Y951180D01*
X519498D01*
X522624Y952018D01*
X525426Y953636D01*
X527715Y955924D01*
X529333Y958727D01*
X530170Y961852D01*
Y965088D01*
X529333Y968214D01*
X527715Y971016D01*
X525426Y973305D01*
X522624Y974923D01*
X519498Y975760D01*
D02*
G37*
G36*
X619694Y962200D02*
X608610D01*
Y951116D01*
X612215D01*
X614151Y951371D01*
X615954Y952118D01*
X617503Y953307D01*
X618692Y954856D01*
X619439Y956660D01*
X619694Y958595D01*
Y962200D01*
D02*
G37*
G36*
X606070D02*
X594986D01*
Y958595D01*
X595241Y956660D01*
X595988Y954856D01*
X597177Y953307D01*
X598725Y952118D01*
X600529Y951371D01*
X602465Y951116D01*
X606070D01*
Y962200D01*
D02*
G37*
G36*
X495234D02*
X484150D01*
Y951116D01*
X487755D01*
X489691Y951371D01*
X491494Y952118D01*
X493043Y953307D01*
X494232Y954856D01*
X494979Y956660D01*
X495234Y958595D01*
Y962200D01*
D02*
G37*
G36*
X481610D02*
X470526D01*
Y958595D01*
X470781Y956660D01*
X471528Y954856D01*
X472716Y953307D01*
X474265Y952118D01*
X476069Y951371D01*
X478005Y951116D01*
X481610D01*
Y962200D01*
D02*
G37*
G36*
X775970Y929640D02*
X768739D01*
X769282Y927614D01*
X770406Y925666D01*
X771996Y924076D01*
X773944Y922952D01*
X775970Y922409D01*
Y929640D01*
D02*
G37*
%LPD*%
G36*
X811152Y1143908D02*
Y1128918D01*
X779638Y1097404D01*
X776620D01*
Y1116470D01*
X776258D01*
X775772Y1117644D01*
X779792Y1121664D01*
X780696D01*
X782957Y1122270D01*
X784985Y1123440D01*
X786640Y1125095D01*
X787810Y1127123D01*
X788416Y1129384D01*
Y1131724D01*
X787810Y1133985D01*
X786640Y1136013D01*
X784985Y1137668D01*
X783883Y1138304D01*
X784224Y1139574D01*
X802640D01*
X805118Y1140066D01*
X807218Y1141470D01*
X809758Y1144010D01*
X809936Y1144277D01*
X811152Y1143908D01*
D02*
G37*
G36*
X735206Y1117250D02*
X721980D01*
Y1100170D01*
Y1083170D01*
X736476D01*
Y1070450D01*
X713900D01*
Y1045370D01*
X719966D01*
Y1034632D01*
X684954Y999620D01*
X682465D01*
X679848Y998919D01*
X677502Y997564D01*
X675586Y995648D01*
X674231Y993302D01*
X673530Y990685D01*
Y987975D01*
X674231Y985358D01*
X675586Y983012D01*
X677502Y981096D01*
X679848Y979741D01*
X682465Y979040D01*
X685174D01*
X687792Y979741D01*
X690138Y981096D01*
X692054Y983012D01*
X693409Y985358D01*
X694110Y987975D01*
Y990464D01*
X731018Y1027372D01*
X732422Y1029473D01*
X732914Y1031950D01*
Y1045370D01*
X736476D01*
Y973978D01*
X732442Y969945D01*
X652793D01*
X652175Y971016D01*
X649886Y973305D01*
X647084Y974923D01*
X643958Y975760D01*
X640722D01*
X639527Y975440D01*
X609014Y1005952D01*
Y1029512D01*
X610774Y1031272D01*
X612129Y1033618D01*
X612830Y1036235D01*
Y1038945D01*
X612129Y1041562D01*
X610774Y1043908D01*
X608858Y1045824D01*
X606512Y1047179D01*
X603895Y1047880D01*
X601406D01*
X600834Y1048452D01*
Y1086942D01*
X602520Y1087915D01*
X604995Y1090390D01*
X606327Y1092697D01*
X607793D01*
X609125Y1090390D01*
X611600Y1087915D01*
X614630Y1086166D01*
X618010Y1085260D01*
X621510D01*
X624890Y1086166D01*
X627920Y1087915D01*
X630395Y1090390D01*
X630643Y1090820D01*
X631870Y1090492D01*
Y1085260D01*
X658450D01*
Y1092076D01*
X665734D01*
X668212Y1092568D01*
X670312Y1093972D01*
X674850Y1098510D01*
X676024Y1098024D01*
Y1053032D01*
X676516Y1050555D01*
X677920Y1048454D01*
X687650Y1038724D01*
Y1036235D01*
X688351Y1033618D01*
X689706Y1031272D01*
X691622Y1029356D01*
X693968Y1028001D01*
X696585Y1027300D01*
X699295D01*
X701912Y1028001D01*
X704258Y1029356D01*
X706174Y1031272D01*
X707529Y1033618D01*
X708230Y1036235D01*
Y1038945D01*
X707529Y1041562D01*
X706174Y1043908D01*
X704258Y1045824D01*
X701912Y1047179D01*
X699295Y1047880D01*
X696806D01*
X688972Y1055714D01*
Y1082390D01*
X705500D01*
Y1084456D01*
X707136D01*
X709614Y1084948D01*
X711714Y1086352D01*
X714254Y1088892D01*
X715658Y1090992D01*
X716150Y1093470D01*
Y1134984D01*
X730346Y1149180D01*
X735206D01*
Y1117250D01*
D02*
G37*
G36*
X849864Y1062940D02*
X849755Y1062750D01*
X848900Y1059561D01*
Y1056259D01*
X849755Y1053070D01*
X851405Y1050210D01*
X853740Y1047876D01*
X854966Y1047168D01*
Y966992D01*
X827424Y939450D01*
X826916D01*
X824744Y938868D01*
X822796Y937744D01*
X821206Y936154D01*
X820082Y934206D01*
X819500Y932034D01*
Y931526D01*
X810118Y922144D01*
X807077D01*
X806737Y923414D01*
X807884Y924076D01*
X809474Y925666D01*
X810598Y927614D01*
X811180Y929786D01*
Y930294D01*
X826268Y945382D01*
X827672Y947482D01*
X828164Y949960D01*
Y1043036D01*
X848848Y1063719D01*
X849864Y1062940D01*
D02*
G37*
%LPC*%
G36*
X1568450Y1222621D02*
Y1215390D01*
X1575681D01*
X1575138Y1217416D01*
X1574014Y1219364D01*
X1572424Y1220954D01*
X1570476Y1222078D01*
X1568450Y1222621D01*
D02*
G37*
G36*
X1565910D02*
X1563884Y1222078D01*
X1561936Y1220954D01*
X1560346Y1219364D01*
X1559222Y1217416D01*
X1558679Y1215390D01*
X1565910D01*
Y1222621D01*
D02*
G37*
G36*
X1543050D02*
Y1215390D01*
X1550281D01*
X1549738Y1217416D01*
X1548614Y1219364D01*
X1547024Y1220954D01*
X1545076Y1222078D01*
X1543050Y1222621D01*
D02*
G37*
G36*
X1540510D02*
X1538484Y1222078D01*
X1536536Y1220954D01*
X1534946Y1219364D01*
X1533822Y1217416D01*
X1533279Y1215390D01*
X1540510D01*
Y1222621D01*
D02*
G37*
G36*
X1517650D02*
Y1215390D01*
X1524881D01*
X1524338Y1217416D01*
X1523214Y1219364D01*
X1521624Y1220954D01*
X1519676Y1222078D01*
X1517650Y1222621D01*
D02*
G37*
G36*
X1515110D02*
X1513084Y1222078D01*
X1511136Y1220954D01*
X1509546Y1219364D01*
X1508422Y1217416D01*
X1507879Y1215390D01*
X1515110D01*
Y1222621D01*
D02*
G37*
G36*
X1466704Y1222660D02*
X1464456D01*
X1462284Y1222078D01*
X1460336Y1220954D01*
X1458746Y1219364D01*
X1457622Y1217416D01*
X1457040Y1215244D01*
Y1214736D01*
X1449893Y1207589D01*
X1448720Y1208075D01*
Y1222660D01*
X1431640D01*
Y1214736D01*
X1407662Y1190758D01*
X1406258Y1188658D01*
X1405766Y1186180D01*
Y1125747D01*
X1405206Y1125187D01*
X1404049Y1123183D01*
X1403450Y1120947D01*
Y1118633D01*
X1404049Y1116397D01*
X1405206Y1114393D01*
X1405766Y1113833D01*
Y1061734D01*
X1406258Y1059257D01*
X1407662Y1057156D01*
X1444952Y1019866D01*
Y1007773D01*
X1443682Y1007388D01*
X1443354Y1007878D01*
X1362954Y1088278D01*
X1360853Y1089682D01*
X1358376Y1090175D01*
X1325260D01*
Y1109240D01*
X1306180D01*
Y1107174D01*
X1301360D01*
X1298882Y1106681D01*
X1298303Y1106294D01*
X1294660D01*
Y1109360D01*
X1292594D01*
Y1115060D01*
X1292101Y1117538D01*
X1290698Y1119638D01*
X1284856Y1125480D01*
X1282755Y1126884D01*
X1280278Y1127376D01*
X1244962D01*
X1242485Y1126884D01*
X1240384Y1125480D01*
X1214104Y1099200D01*
X1204180D01*
Y1080120D01*
X1223260D01*
Y1090044D01*
X1247644Y1114428D01*
X1277596D01*
X1279645Y1112378D01*
Y1109360D01*
X1260580D01*
Y1090280D01*
X1262646D01*
Y1079510D01*
X1262258Y1078930D01*
X1261765Y1076452D01*
Y1063640D01*
X1259700D01*
Y1045334D01*
X1182620D01*
Y1048400D01*
X1174350D01*
Y1038860D01*
X1173080D01*
Y1037590D01*
X1163540D01*
Y1029320D01*
X1166606D01*
Y1018032D01*
X1167099Y1015554D01*
X1168502Y1013454D01*
X1171832Y1010124D01*
Y1000760D01*
X1170616Y1000391D01*
X1170438Y1000658D01*
X1132620Y1038476D01*
Y1040116D01*
X1131970Y1042542D01*
X1130714Y1044718D01*
X1129554Y1045877D01*
Y1066038D01*
X1129061Y1068516D01*
X1128375Y1069543D01*
Y1085200D01*
X1130440D01*
Y1104280D01*
X1096360D01*
Y1101214D01*
X1071880D01*
X1069402Y1100722D01*
X1067302Y1099318D01*
X1057142Y1089158D01*
X1055738Y1087058D01*
X1055246Y1084580D01*
Y922940D01*
X1053180D01*
Y905860D01*
X1070260D01*
Y922940D01*
X1068194D01*
Y1081898D01*
X1074562Y1088266D01*
X1096360D01*
Y1085200D01*
X1115426D01*
Y1067218D01*
X1115919Y1064740D01*
X1116605Y1063712D01*
Y1045877D01*
X1115446Y1044718D01*
X1114190Y1042542D01*
X1113540Y1040116D01*
Y1037604D01*
X1114190Y1035178D01*
X1115446Y1033002D01*
X1117222Y1031226D01*
X1119398Y1029970D01*
X1121824Y1029320D01*
X1123464D01*
X1159273Y993510D01*
X1159026Y993263D01*
X1157902Y991316D01*
X1157320Y989144D01*
Y986896D01*
X1157902Y984724D01*
X1159026Y982776D01*
X1160616Y981186D01*
X1162564Y980062D01*
X1164736Y979480D01*
X1166984D01*
X1169156Y980062D01*
X1170562Y980873D01*
X1171832Y980207D01*
Y922274D01*
X1172324Y919796D01*
X1173728Y917696D01*
X1182720Y908704D01*
Y908196D01*
X1183302Y906024D01*
X1184396Y904129D01*
X1184231Y903454D01*
X1183985Y902859D01*
X1173135D01*
X1172889Y903454D01*
X1172724Y904129D01*
X1173818Y906024D01*
X1174400Y908196D01*
Y910444D01*
X1173818Y912616D01*
X1172694Y914564D01*
X1171104Y916154D01*
X1169156Y917278D01*
X1166984Y917860D01*
X1164736D01*
X1162564Y917278D01*
X1160616Y916154D01*
X1159026Y914564D01*
X1157902Y912616D01*
X1157320Y910444D01*
Y908196D01*
X1157902Y906024D01*
X1158996Y904129D01*
X1158831Y903454D01*
X1158585Y902859D01*
X1156077D01*
X1149000Y909936D01*
Y910444D01*
X1148418Y912616D01*
X1147294Y914564D01*
X1145704Y916154D01*
X1143756Y917278D01*
X1141584Y917860D01*
X1139336D01*
X1137164Y917278D01*
X1135216Y916154D01*
X1133626Y914564D01*
X1132502Y912616D01*
X1131920Y910444D01*
Y908196D01*
X1132502Y906024D01*
X1133626Y904076D01*
X1133986Y903717D01*
Y886460D01*
X1134478Y883982D01*
X1135882Y881882D01*
X1170020Y847744D01*
Y847236D01*
X1170602Y845064D01*
X1171726Y843116D01*
X1173316Y841526D01*
X1175264Y840402D01*
X1177436Y839820D01*
X1179684D01*
X1181856Y840402D01*
X1183804Y841526D01*
X1185394Y843116D01*
X1186518Y845064D01*
X1187100Y847236D01*
Y849484D01*
X1186518Y851656D01*
X1185394Y853604D01*
X1183804Y855194D01*
X1181856Y856318D01*
X1179684Y856900D01*
X1179176D01*
X1146934Y889142D01*
Y892030D01*
X1148108Y892516D01*
X1148818Y891806D01*
X1150918Y890403D01*
X1153396Y889910D01*
X1230784D01*
X1233262Y890403D01*
X1235362Y891806D01*
X1238138Y894582D01*
X1239542Y896682D01*
X1239653Y897240D01*
X1249290D01*
Y906780D01*
X1250560D01*
Y908050D01*
X1259100D01*
Y916320D01*
X1257034D01*
Y918092D01*
X1256541Y920570D01*
X1255138Y922670D01*
X1241558Y936250D01*
X1239458Y937654D01*
X1236980Y938146D01*
X1213612D01*
X1211134Y937654D01*
X1209034Y936250D01*
X1191260Y918476D01*
X1184780Y924956D01*
Y980763D01*
X1185954Y981249D01*
X1186016Y981186D01*
X1187964Y980062D01*
X1190136Y979480D01*
X1192384D01*
X1194556Y980062D01*
X1196504Y981186D01*
X1198094Y982776D01*
X1199218Y984724D01*
X1199800Y986896D01*
Y987404D01*
X1231066Y1018670D01*
X1257081D01*
X1258040Y1017920D01*
Y998840D01*
X1260106D01*
Y979796D01*
X1260599Y977318D01*
X1262002Y975218D01*
X1297425Y939794D01*
Y840120D01*
X1278360D01*
Y837054D01*
X1249822D01*
X1237900Y848976D01*
Y856900D01*
X1220820D01*
Y839820D01*
X1228744D01*
X1242562Y826002D01*
X1244662Y824598D01*
X1247140Y824106D01*
X1278360D01*
Y821040D01*
X1297425D01*
Y812942D01*
X1291058Y806574D01*
X1127902D01*
X1121534Y812942D01*
Y900780D01*
X1123600D01*
Y917860D01*
X1106520D01*
Y900780D01*
X1108586D01*
Y810260D01*
X1109078Y807782D01*
X1110482Y805682D01*
X1120642Y795522D01*
X1122742Y794118D01*
X1125220Y793626D01*
X1293740D01*
X1296217Y794118D01*
X1298318Y795522D01*
X1308478Y805682D01*
X1309881Y807782D01*
X1310374Y810260D01*
Y821040D01*
X1312440D01*
Y840120D01*
X1310374D01*
Y942476D01*
X1309881Y944954D01*
X1308478Y947054D01*
X1273055Y982478D01*
Y998840D01*
X1277110D01*
X1277598Y996386D01*
X1279002Y994286D01*
X1293362Y979926D01*
X1295462Y978522D01*
X1297940Y978030D01*
X1350869D01*
X1351209Y976760D01*
X1349678Y975876D01*
X1348088Y974286D01*
X1346964Y972338D01*
X1346382Y970166D01*
Y967918D01*
X1346964Y965746D01*
X1348088Y963798D01*
X1349678Y962208D01*
X1351626Y961084D01*
X1353798Y960502D01*
X1356046D01*
X1358218Y961084D01*
X1360166Y962208D01*
X1361756Y963798D01*
X1362880Y965746D01*
X1363462Y967918D01*
Y970166D01*
X1362880Y972338D01*
X1361756Y974286D01*
X1360166Y975876D01*
X1358635Y976760D01*
X1358975Y978030D01*
X1426234D01*
X1434488Y969776D01*
X1436588Y968373D01*
X1439066Y967880D01*
X1528916D01*
X1531394Y968373D01*
X1533494Y969776D01*
X1552042Y988324D01*
X1552550D01*
X1554722Y988906D01*
X1556670Y990030D01*
X1558260Y991620D01*
X1559384Y993568D01*
X1559966Y995740D01*
Y997988D01*
X1559384Y1000160D01*
X1558260Y1002108D01*
X1556670Y1003698D01*
X1554722Y1004822D01*
X1552550Y1005404D01*
X1550302D01*
X1548130Y1004822D01*
X1546182Y1003698D01*
X1544592Y1002108D01*
X1543468Y1000160D01*
X1542886Y997988D01*
Y997480D01*
X1526234Y980829D01*
X1467630D01*
X1467144Y982002D01*
X1468380Y983238D01*
X1469784Y985339D01*
X1470276Y987816D01*
Y989284D01*
X1471546Y989820D01*
X1473130Y988906D01*
X1475302Y988324D01*
X1477550D01*
X1479722Y988906D01*
X1481670Y990030D01*
X1483260Y991620D01*
X1484384Y993568D01*
X1484966Y995740D01*
Y997988D01*
X1484384Y1000160D01*
X1483260Y1002108D01*
X1481670Y1003698D01*
X1479722Y1004822D01*
X1477550Y1005404D01*
X1476858D01*
X1476332Y1006674D01*
X1482994Y1013336D01*
X1500799D01*
X1517886Y996248D01*
Y995740D01*
X1518468Y993568D01*
X1519592Y991620D01*
X1521182Y990030D01*
X1523130Y988906D01*
X1525302Y988324D01*
X1527550D01*
X1529722Y988906D01*
X1531670Y990030D01*
X1533260Y991620D01*
X1534384Y993568D01*
X1534966Y995740D01*
Y997988D01*
X1534384Y1000160D01*
X1533260Y1002108D01*
X1531670Y1003698D01*
X1529722Y1004822D01*
X1527550Y1005404D01*
X1527043D01*
X1508058Y1024388D01*
X1505958Y1025792D01*
X1503480Y1026284D01*
X1480312D01*
X1477834Y1025792D01*
X1475734Y1024388D01*
X1459224Y1007878D01*
X1459116Y1007716D01*
X1457901Y1008085D01*
Y1022548D01*
X1457408Y1025026D01*
X1456004Y1027126D01*
X1418714Y1064416D01*
Y1113833D01*
X1419274Y1114393D01*
X1420431Y1116397D01*
X1421030Y1118633D01*
Y1120947D01*
X1420431Y1123183D01*
X1419274Y1125187D01*
X1418714Y1125747D01*
Y1183498D01*
X1440796Y1205580D01*
X1446225D01*
X1446711Y1204407D01*
X1433062Y1190758D01*
X1431658Y1188658D01*
X1431166Y1186180D01*
Y1100347D01*
X1430606Y1099787D01*
X1429449Y1097783D01*
X1428850Y1095547D01*
Y1093233D01*
X1429449Y1090997D01*
X1430606Y1088993D01*
X1432243Y1087356D01*
X1434247Y1086199D01*
X1436483Y1085600D01*
X1438797D01*
X1441033Y1086199D01*
X1443037Y1087356D01*
X1444674Y1088993D01*
X1445831Y1090997D01*
X1446430Y1093233D01*
Y1095547D01*
X1445831Y1097783D01*
X1444674Y1099787D01*
X1444114Y1100347D01*
Y1183498D01*
X1466196Y1205580D01*
X1466704D01*
X1468876Y1206162D01*
X1470824Y1207286D01*
X1472414Y1208876D01*
X1473538Y1210824D01*
X1474120Y1212996D01*
Y1215244D01*
X1473538Y1217416D01*
X1472414Y1219364D01*
X1470824Y1220954D01*
X1468876Y1222078D01*
X1466704Y1222660D01*
D02*
G37*
G36*
X1575681Y1212850D02*
X1568450D01*
Y1205619D01*
X1570476Y1206162D01*
X1572424Y1207286D01*
X1574014Y1208876D01*
X1575138Y1210824D01*
X1575681Y1212850D01*
D02*
G37*
G36*
X1565910D02*
X1558679D01*
X1559222Y1210824D01*
X1560346Y1208876D01*
X1561936Y1207286D01*
X1563884Y1206162D01*
X1565910Y1205619D01*
Y1212850D01*
D02*
G37*
G36*
X1524881D02*
X1517650D01*
Y1205619D01*
X1519676Y1206162D01*
X1521624Y1207286D01*
X1523214Y1208876D01*
X1524338Y1210824D01*
X1524881Y1212850D01*
D02*
G37*
G36*
X1515110D02*
X1507879D01*
X1508422Y1210824D01*
X1509546Y1208876D01*
X1511136Y1207286D01*
X1513084Y1206162D01*
X1515110Y1205619D01*
Y1212850D01*
D02*
G37*
G36*
X1266818Y1193850D02*
X1266470D01*
Y1182830D01*
X1277490D01*
Y1183178D01*
X1276652Y1186304D01*
X1275034Y1189107D01*
X1272746Y1191395D01*
X1269944Y1193013D01*
X1266818Y1193850D01*
D02*
G37*
G36*
X1263930D02*
X1263582D01*
X1260456Y1193013D01*
X1257654Y1191395D01*
X1255366Y1189107D01*
X1253747Y1186304D01*
X1252910Y1183178D01*
Y1182830D01*
X1263930D01*
Y1193850D01*
D02*
G37*
G36*
X1277490Y1180290D02*
X1266470D01*
Y1169270D01*
X1266818D01*
X1269944Y1170108D01*
X1272746Y1171726D01*
X1275034Y1174014D01*
X1276652Y1176816D01*
X1277490Y1179942D01*
Y1180290D01*
D02*
G37*
G36*
X1263930D02*
X1252910D01*
Y1179942D01*
X1253747Y1176816D01*
X1255366Y1174014D01*
X1257654Y1171726D01*
X1260456Y1170108D01*
X1263582Y1169270D01*
X1263930D01*
Y1180290D01*
D02*
G37*
G36*
X1305075Y1193914D02*
X1295325D01*
X1293389Y1193659D01*
X1291586Y1192912D01*
X1290037Y1191724D01*
X1288848Y1190175D01*
X1288101Y1188371D01*
X1287846Y1186435D01*
Y1176685D01*
X1288101Y1174750D01*
X1288848Y1172946D01*
X1290037Y1171397D01*
X1291586Y1170208D01*
X1293389Y1169461D01*
X1295325Y1169206D01*
X1305075D01*
X1307011Y1169461D01*
X1308815Y1170208D01*
X1310363Y1171397D01*
X1311552Y1172946D01*
X1312299Y1174750D01*
X1312554Y1176685D01*
Y1186435D01*
X1312299Y1188371D01*
X1311552Y1190175D01*
X1310363Y1191724D01*
X1308815Y1192912D01*
X1307011Y1193659D01*
X1305075Y1193914D01*
D02*
G37*
G36*
X1596290Y1128580D02*
X1588770D01*
Y1121060D01*
X1596290D01*
Y1128580D01*
D02*
G37*
G36*
X1471830D02*
X1464310D01*
Y1121060D01*
X1471830D01*
Y1128580D01*
D02*
G37*
G36*
X1586230D02*
X1578710D01*
Y1121060D01*
X1586230D01*
Y1128580D01*
D02*
G37*
G36*
X1461770D02*
X1454250D01*
Y1121060D01*
X1461770D01*
Y1128580D01*
D02*
G37*
G36*
X1550281Y1212850D02*
X1533279D01*
X1533822Y1210824D01*
X1534946Y1208876D01*
X1535306Y1208517D01*
Y1128516D01*
X1533307Y1127981D01*
X1531303Y1126824D01*
X1529666Y1125187D01*
X1528509Y1123183D01*
X1527940Y1121060D01*
X1536700D01*
Y1119790D01*
X1537970D01*
Y1111030D01*
X1540093Y1111599D01*
X1542097Y1112756D01*
X1543734Y1114393D01*
X1544891Y1116397D01*
X1545490Y1118633D01*
Y1119424D01*
X1546358Y1120292D01*
X1547762Y1122392D01*
X1548254Y1124870D01*
Y1208517D01*
X1548614Y1208876D01*
X1549738Y1210824D01*
X1550281Y1212850D01*
D02*
G37*
G36*
X1535430Y1118520D02*
X1527940D01*
X1528509Y1116397D01*
X1529666Y1114393D01*
X1531303Y1112756D01*
X1533307Y1111599D01*
X1535430Y1111030D01*
Y1118520D01*
D02*
G37*
G36*
X1596290D02*
X1588770D01*
Y1111000D01*
X1596290D01*
Y1118520D01*
D02*
G37*
G36*
X1586230D02*
X1578710D01*
Y1111000D01*
X1586230D01*
Y1118520D01*
D02*
G37*
G36*
X1471830D02*
X1464310D01*
Y1111000D01*
X1471830D01*
Y1118520D01*
D02*
G37*
G36*
X1461770D02*
X1454250D01*
Y1111000D01*
X1461770D01*
Y1118520D01*
D02*
G37*
G36*
X1164990Y1099196D02*
Y1090930D01*
X1173256D01*
X1172610Y1093342D01*
X1171354Y1095518D01*
X1169577Y1097294D01*
X1167402Y1098550D01*
X1164990Y1099196D01*
D02*
G37*
G36*
X1162450D02*
X1160038Y1098550D01*
X1157862Y1097294D01*
X1156086Y1095518D01*
X1154830Y1093342D01*
X1154184Y1090930D01*
X1162450D01*
Y1099196D01*
D02*
G37*
G36*
X1492104Y1222660D02*
X1489856D01*
X1487684Y1222078D01*
X1485736Y1220954D01*
X1484146Y1219364D01*
X1483022Y1217416D01*
X1482440Y1215244D01*
Y1212996D01*
X1483022Y1210824D01*
X1484146Y1208876D01*
X1484506Y1208517D01*
Y1104550D01*
X1484998Y1102072D01*
X1486402Y1099972D01*
X1496562Y1089812D01*
X1498662Y1088408D01*
X1501140Y1087916D01*
X1556143D01*
X1556703Y1087356D01*
X1558707Y1086199D01*
X1560943Y1085600D01*
X1563257D01*
X1565493Y1086199D01*
X1567497Y1087356D01*
X1569134Y1088993D01*
X1570291Y1090997D01*
X1570890Y1093233D01*
Y1095547D01*
X1570291Y1097783D01*
X1569134Y1099787D01*
X1567497Y1101424D01*
X1565493Y1102581D01*
X1563257Y1103180D01*
X1560943D01*
X1558707Y1102581D01*
X1556703Y1101424D01*
X1556143Y1100864D01*
X1503822D01*
X1497454Y1107232D01*
Y1208517D01*
X1497814Y1208876D01*
X1498938Y1210824D01*
X1499520Y1212996D01*
Y1215244D01*
X1498938Y1217416D01*
X1497814Y1219364D01*
X1496224Y1220954D01*
X1494276Y1222078D01*
X1492104Y1222660D01*
D02*
G37*
G36*
X1163720Y1089660D02*
D01*
Y1088390D01*
X1154184D01*
X1154830Y1085978D01*
X1156086Y1083802D01*
X1157245Y1082643D01*
Y1048220D01*
X1157738Y1045743D01*
X1159142Y1043642D01*
X1162654Y1040130D01*
X1171810D01*
Y1049286D01*
X1170194Y1050902D01*
Y1082643D01*
X1171354Y1083802D01*
X1172610Y1085978D01*
X1173256Y1088390D01*
X1163720D01*
Y1089660D01*
D02*
G37*
G36*
X1652550Y1005404D02*
X1650302D01*
X1648130Y1004822D01*
X1646182Y1003698D01*
X1644592Y1002108D01*
X1643468Y1000160D01*
X1642886Y997988D01*
Y995740D01*
X1643468Y993568D01*
X1644592Y991620D01*
X1646182Y990030D01*
X1648130Y988906D01*
X1650302Y988324D01*
X1652550D01*
X1654722Y988906D01*
X1656670Y990030D01*
X1658260Y991620D01*
X1659384Y993568D01*
X1659966Y995740D01*
Y997988D01*
X1659384Y1000160D01*
X1658260Y1002108D01*
X1656670Y1003698D01*
X1654722Y1004822D01*
X1652550Y1005404D01*
D02*
G37*
G36*
X1627550D02*
X1625302D01*
X1623130Y1004822D01*
X1621182Y1003698D01*
X1619592Y1002108D01*
X1618468Y1000160D01*
X1617886Y997988D01*
Y995740D01*
X1618468Y993568D01*
X1619592Y991620D01*
X1621182Y990030D01*
X1623130Y988906D01*
X1625302Y988324D01*
X1627550D01*
X1629722Y988906D01*
X1631670Y990030D01*
X1633260Y991620D01*
X1634384Y993568D01*
X1634966Y995740D01*
Y997988D01*
X1634384Y1000160D01*
X1633260Y1002108D01*
X1631670Y1003698D01*
X1629722Y1004822D01*
X1627550Y1005404D01*
D02*
G37*
G36*
X1502550D02*
X1500302D01*
X1498130Y1004822D01*
X1496182Y1003698D01*
X1494592Y1002108D01*
X1493468Y1000160D01*
X1492886Y997988D01*
Y995740D01*
X1493468Y993568D01*
X1494592Y991620D01*
X1496182Y990030D01*
X1498130Y988906D01*
X1500302Y988324D01*
X1502550D01*
X1504722Y988906D01*
X1506670Y990030D01*
X1508260Y991620D01*
X1509384Y993568D01*
X1509966Y995740D01*
Y997988D01*
X1509384Y1000160D01*
X1508260Y1002108D01*
X1506670Y1003698D01*
X1504722Y1004822D01*
X1502550Y1005404D01*
D02*
G37*
G36*
X1141584Y996560D02*
X1139336D01*
X1137164Y995978D01*
X1135216Y994854D01*
X1133626Y993263D01*
X1132502Y991316D01*
X1131920Y989144D01*
Y986896D01*
X1132502Y984724D01*
X1133626Y982776D01*
X1135216Y981186D01*
X1137164Y980062D01*
X1139336Y979480D01*
X1141584D01*
X1143756Y980062D01*
X1145704Y981186D01*
X1147294Y982776D01*
X1148418Y984724D01*
X1149000Y986896D01*
Y989144D01*
X1148418Y991316D01*
X1147294Y993263D01*
X1145704Y994854D01*
X1143756Y995978D01*
X1141584Y996560D01*
D02*
G37*
G36*
X1116184D02*
X1113936D01*
X1111764Y995978D01*
X1109816Y994854D01*
X1108226Y993263D01*
X1107102Y991316D01*
X1106520Y989144D01*
Y986896D01*
X1107102Y984724D01*
X1108226Y982776D01*
X1109816Y981186D01*
X1111764Y980062D01*
X1113936Y979480D01*
X1116184D01*
X1118356Y980062D01*
X1120304Y981186D01*
X1121894Y982776D01*
X1123018Y984724D01*
X1123600Y986896D01*
Y989144D01*
X1123018Y991316D01*
X1121894Y993263D01*
X1120304Y994854D01*
X1118356Y995978D01*
X1116184Y996560D01*
D02*
G37*
G36*
X1356046Y952582D02*
X1353798D01*
X1351626Y952000D01*
X1349678Y950876D01*
X1348088Y949286D01*
X1346964Y947338D01*
X1346382Y945166D01*
Y942918D01*
X1346964Y940746D01*
X1348088Y938798D01*
X1349678Y937208D01*
X1351626Y936084D01*
X1353798Y935502D01*
X1356046D01*
X1358218Y936084D01*
X1360166Y937208D01*
X1361756Y938798D01*
X1362880Y940746D01*
X1363462Y942918D01*
Y945166D01*
X1362880Y947338D01*
X1361756Y949286D01*
X1360166Y950876D01*
X1358218Y952000D01*
X1356046Y952582D01*
D02*
G37*
G36*
Y927582D02*
X1353798D01*
X1351626Y927000D01*
X1349678Y925876D01*
X1348088Y924286D01*
X1346964Y922338D01*
X1346382Y920166D01*
Y917918D01*
X1346964Y915746D01*
X1348088Y913798D01*
X1349678Y912208D01*
X1351626Y911084D01*
X1353798Y910502D01*
X1356046D01*
X1358218Y911084D01*
X1360166Y912208D01*
X1361756Y913798D01*
X1362880Y915746D01*
X1363462Y917918D01*
Y920166D01*
X1362880Y922338D01*
X1361756Y924286D01*
X1360166Y925876D01*
X1358218Y927000D01*
X1356046Y927582D01*
D02*
G37*
G36*
X1259100Y905510D02*
X1251830D01*
Y897240D01*
X1259100D01*
Y905510D01*
D02*
G37*
G36*
X1356046Y902582D02*
X1353798D01*
X1351626Y902000D01*
X1349678Y900876D01*
X1348088Y899286D01*
X1346964Y897338D01*
X1346382Y895166D01*
Y892918D01*
X1346964Y890746D01*
X1348088Y888798D01*
X1349678Y887208D01*
X1351626Y886084D01*
X1353798Y885502D01*
X1356046D01*
X1358218Y886084D01*
X1360166Y887208D01*
X1361756Y888798D01*
X1362880Y890746D01*
X1363462Y892918D01*
Y895166D01*
X1362880Y897338D01*
X1361756Y899286D01*
X1360166Y900876D01*
X1358218Y902000D01*
X1356046Y902582D01*
D02*
G37*
G36*
X1062844Y897540D02*
X1060596D01*
X1058424Y896958D01*
X1056476Y895834D01*
X1054886Y894244D01*
X1053762Y892296D01*
X1053180Y890124D01*
Y887876D01*
X1053762Y885704D01*
X1054886Y883756D01*
X1056476Y882166D01*
X1058424Y881042D01*
X1060596Y880460D01*
X1062844D01*
X1065016Y881042D01*
X1066964Y882166D01*
X1068554Y883756D01*
X1069678Y885704D01*
X1070260Y887876D01*
Y890124D01*
X1069678Y892296D01*
X1068554Y894244D01*
X1066964Y895834D01*
X1065016Y896958D01*
X1062844Y897540D01*
D02*
G37*
G36*
X1356046Y877582D02*
X1353798D01*
X1351626Y877000D01*
X1349678Y875876D01*
X1348088Y874286D01*
X1346964Y872338D01*
X1346382Y870166D01*
Y867918D01*
X1346964Y865746D01*
X1348088Y863798D01*
X1349678Y862208D01*
X1351626Y861084D01*
X1353798Y860502D01*
X1356046D01*
X1358218Y861084D01*
X1360166Y862208D01*
X1361756Y863798D01*
X1362880Y865746D01*
X1363462Y867918D01*
Y870166D01*
X1362880Y872338D01*
X1361756Y874286D01*
X1360166Y875876D01*
X1358218Y877000D01*
X1356046Y877582D01*
D02*
G37*
G36*
X1062844Y872140D02*
X1060596D01*
X1058424Y871558D01*
X1056476Y870434D01*
X1054886Y868844D01*
X1053762Y866896D01*
X1053180Y864724D01*
Y862476D01*
X1053762Y860304D01*
X1054886Y858356D01*
X1056476Y856766D01*
X1058424Y855642D01*
X1060596Y855060D01*
X1062844D01*
X1065016Y855642D01*
X1066964Y856766D01*
X1068554Y858356D01*
X1069678Y860304D01*
X1070260Y862476D01*
Y864724D01*
X1069678Y866896D01*
X1068554Y868844D01*
X1066964Y870434D01*
X1065016Y871558D01*
X1062844Y872140D01*
D02*
G37*
G36*
X1205084Y856900D02*
X1202836D01*
X1200664Y856318D01*
X1198716Y855194D01*
X1197126Y853604D01*
X1196002Y851656D01*
X1195420Y849484D01*
Y847236D01*
X1196002Y845064D01*
X1197126Y843116D01*
X1198716Y841526D01*
X1200664Y840402D01*
X1202836Y839820D01*
X1205084D01*
X1207256Y840402D01*
X1209204Y841526D01*
X1210794Y843116D01*
X1211918Y845064D01*
X1212500Y847236D01*
Y849484D01*
X1211918Y851656D01*
X1210794Y853604D01*
X1209204Y855194D01*
X1207256Y856318D01*
X1205084Y856900D01*
D02*
G37*
G36*
X1062990Y846701D02*
Y839470D01*
X1070221D01*
X1069678Y841496D01*
X1068554Y843444D01*
X1066964Y845034D01*
X1065016Y846158D01*
X1062990Y846701D01*
D02*
G37*
G36*
X1060450D02*
X1058424Y846158D01*
X1056476Y845034D01*
X1054886Y843444D01*
X1053762Y841496D01*
X1053219Y839470D01*
X1060450D01*
Y846701D01*
D02*
G37*
G36*
X1356046Y852582D02*
X1353798D01*
X1351626Y852000D01*
X1349678Y850876D01*
X1348088Y849286D01*
X1346964Y847338D01*
X1346382Y845166D01*
Y842918D01*
X1346964Y840746D01*
X1348088Y838798D01*
X1349678Y837208D01*
X1351626Y836084D01*
X1353798Y835502D01*
X1356046D01*
X1358218Y836084D01*
X1360166Y837208D01*
X1361756Y838798D01*
X1362880Y840746D01*
X1363462Y842918D01*
Y845166D01*
X1362880Y847338D01*
X1361756Y849286D01*
X1360166Y850876D01*
X1358218Y852000D01*
X1356046Y852582D01*
D02*
G37*
G36*
X1070221Y836930D02*
X1062990D01*
Y829699D01*
X1065016Y830242D01*
X1066964Y831366D01*
X1068554Y832956D01*
X1069678Y834904D01*
X1070221Y836930D01*
D02*
G37*
G36*
X1060450D02*
X1053219D01*
X1053762Y834904D01*
X1054886Y832956D01*
X1056476Y831366D01*
X1058424Y830242D01*
X1060450Y829699D01*
Y836930D01*
D02*
G37*
G36*
X1452696Y825365D02*
Y818134D01*
X1459927D01*
X1459384Y820160D01*
X1458260Y822108D01*
X1456670Y823698D01*
X1454722Y824822D01*
X1452696Y825365D01*
D02*
G37*
G36*
X1450156D02*
X1448130Y824822D01*
X1446182Y823698D01*
X1444592Y822108D01*
X1443468Y820160D01*
X1442925Y818134D01*
X1450156D01*
Y825365D01*
D02*
G37*
G36*
X1459927Y815594D02*
X1452696D01*
Y808363D01*
X1454722Y808906D01*
X1456670Y810030D01*
X1458260Y811620D01*
X1459384Y813568D01*
X1459927Y815594D01*
D02*
G37*
G36*
X1450156D02*
X1442925D01*
X1443468Y813568D01*
X1444592Y811620D01*
X1446182Y810030D01*
X1448130Y808906D01*
X1450156Y808363D01*
Y815594D01*
D02*
G37*
G36*
X1652550Y825404D02*
X1650302D01*
X1648130Y824822D01*
X1646182Y823698D01*
X1644592Y822108D01*
X1643468Y820160D01*
X1642886Y817988D01*
Y815740D01*
X1643468Y813568D01*
X1644592Y811620D01*
X1646182Y810030D01*
X1648130Y808906D01*
X1650302Y808324D01*
X1652550D01*
X1654722Y808906D01*
X1656670Y810030D01*
X1658260Y811620D01*
X1659384Y813568D01*
X1659966Y815740D01*
Y817988D01*
X1659384Y820160D01*
X1658260Y822108D01*
X1656670Y823698D01*
X1654722Y824822D01*
X1652550Y825404D01*
D02*
G37*
G36*
X1627550D02*
X1625302D01*
X1623130Y824822D01*
X1621182Y823698D01*
X1619592Y822108D01*
X1618468Y820160D01*
X1617886Y817988D01*
Y815740D01*
X1618468Y813568D01*
X1619592Y811620D01*
X1621182Y810030D01*
X1623130Y808906D01*
X1625302Y808324D01*
X1627550D01*
X1629722Y808906D01*
X1631670Y810030D01*
X1633260Y811620D01*
X1634384Y813568D01*
X1634966Y815740D01*
Y817988D01*
X1634384Y820160D01*
X1633260Y822108D01*
X1631670Y823698D01*
X1629722Y824822D01*
X1627550Y825404D01*
D02*
G37*
G36*
X1427550D02*
X1425302D01*
X1423130Y824822D01*
X1421182Y823698D01*
X1419592Y822108D01*
X1418468Y820160D01*
X1417886Y817988D01*
Y815740D01*
X1418468Y813568D01*
X1419592Y811620D01*
X1421182Y810030D01*
X1423130Y808906D01*
X1425302Y808324D01*
X1427550D01*
X1429722Y808906D01*
X1431670Y810030D01*
X1433260Y811620D01*
X1434384Y813568D01*
X1434966Y815740D01*
Y817988D01*
X1434384Y820160D01*
X1433260Y822108D01*
X1431670Y823698D01*
X1429722Y824822D01*
X1427550Y825404D01*
D02*
G37*
G36*
X1402550D02*
X1400302D01*
X1398130Y824822D01*
X1396182Y823698D01*
X1394592Y822108D01*
X1393468Y820160D01*
X1392886Y817988D01*
Y815740D01*
X1393468Y813568D01*
X1394592Y811620D01*
X1396182Y810030D01*
X1398130Y808906D01*
X1400302Y808324D01*
X1402550D01*
X1404722Y808906D01*
X1406670Y810030D01*
X1408260Y811620D01*
X1409384Y813568D01*
X1409966Y815740D01*
Y817988D01*
X1409384Y820160D01*
X1408260Y822108D01*
X1406670Y823698D01*
X1404722Y824822D01*
X1402550Y825404D01*
D02*
G37*
G36*
X1384966D02*
X1367886D01*
Y808324D01*
X1384966D01*
Y825404D01*
D02*
G37*
G36*
X1577550Y1005404D02*
X1575302D01*
X1573130Y1004822D01*
X1571182Y1003698D01*
X1569592Y1002108D01*
X1568468Y1000160D01*
X1567886Y997988D01*
Y995740D01*
X1568468Y993568D01*
X1569592Y991620D01*
X1571182Y990030D01*
X1573130Y988906D01*
X1575302Y988324D01*
X1575810D01*
X1667386Y896749D01*
Y766652D01*
X1666116Y766267D01*
X1665738Y766832D01*
X1663638Y768236D01*
X1661160Y768728D01*
X1658718D01*
X1609966Y817480D01*
Y817988D01*
X1609384Y820160D01*
X1608260Y822108D01*
X1606670Y823698D01*
X1604722Y824822D01*
X1602550Y825404D01*
X1600302D01*
X1598130Y824822D01*
X1596182Y823698D01*
X1594592Y822108D01*
X1593468Y820160D01*
X1592886Y817988D01*
Y815740D01*
X1593468Y813568D01*
X1594592Y811620D01*
X1596182Y810030D01*
X1598130Y808906D01*
X1600302Y808324D01*
X1600810D01*
X1651458Y757676D01*
X1652620Y756899D01*
Y755796D01*
X1653202Y753624D01*
X1654326Y751676D01*
X1655916Y750086D01*
X1657864Y748962D01*
X1660036Y748380D01*
X1662284D01*
X1664456Y748962D01*
X1666116Y749920D01*
X1667386Y749439D01*
Y733806D01*
X1667878Y731328D01*
X1669282Y729228D01*
X1679442Y719068D01*
X1681542Y717664D01*
X1684020Y717172D01*
X1704086D01*
X1706564Y717664D01*
X1708664Y719068D01*
X1737976Y748380D01*
X1745900D01*
Y765460D01*
X1728820D01*
Y757536D01*
X1701404Y730120D01*
X1686702D01*
X1680334Y736488D01*
Y749439D01*
X1681604Y749920D01*
X1683264Y748962D01*
X1685436Y748380D01*
X1687684D01*
X1689856Y748962D01*
X1691804Y750086D01*
X1693394Y751676D01*
X1694518Y753624D01*
X1695100Y755796D01*
Y758044D01*
X1694518Y760216D01*
X1693394Y762164D01*
X1691804Y763754D01*
X1689856Y764878D01*
X1687684Y765460D01*
X1685436D01*
X1683264Y764878D01*
X1681604Y763920D01*
X1680334Y764401D01*
Y899430D01*
X1679842Y901908D01*
X1678438Y904008D01*
X1584966Y997480D01*
Y997988D01*
X1584384Y1000160D01*
X1583260Y1002108D01*
X1581670Y1003698D01*
X1579722Y1004822D01*
X1577550Y1005404D01*
D02*
G37*
G36*
X1554178Y765011D02*
Y757780D01*
X1561409D01*
X1560866Y759806D01*
X1559742Y761754D01*
X1558152Y763344D01*
X1556205Y764468D01*
X1554178Y765011D01*
D02*
G37*
G36*
X1551638D02*
X1549612Y764468D01*
X1547665Y763344D01*
X1546075Y761754D01*
X1544950Y759806D01*
X1544407Y757780D01*
X1551638D01*
Y765011D01*
D02*
G37*
G36*
X1602550Y1005404D02*
X1600302D01*
X1598130Y1004822D01*
X1596182Y1003698D01*
X1594592Y1002108D01*
X1593468Y1000160D01*
X1592886Y997988D01*
Y995740D01*
X1593468Y993568D01*
X1594592Y991620D01*
X1596182Y990030D01*
X1598130Y988906D01*
X1600302Y988324D01*
X1600810D01*
X1687960Y901174D01*
Y774446D01*
X1688452Y771968D01*
X1689856Y769868D01*
X1703420Y756304D01*
Y755796D01*
X1704002Y753624D01*
X1705126Y751676D01*
X1706716Y750086D01*
X1708664Y748962D01*
X1710836Y748380D01*
X1713084D01*
X1715256Y748962D01*
X1717204Y750086D01*
X1718794Y751676D01*
X1719918Y753624D01*
X1720500Y755796D01*
Y758044D01*
X1719918Y760216D01*
X1718794Y762164D01*
X1717204Y763754D01*
X1715256Y764878D01*
X1713084Y765460D01*
X1712576D01*
X1700908Y777128D01*
Y903856D01*
X1700416Y906334D01*
X1699012Y908434D01*
X1609966Y997480D01*
Y997988D01*
X1609384Y1000160D01*
X1608260Y1002108D01*
X1606670Y1003698D01*
X1604722Y1004822D01*
X1602550Y1005404D01*
D02*
G37*
G36*
X1577550Y825404D02*
X1575302D01*
X1573130Y824822D01*
X1571182Y823698D01*
X1569592Y822108D01*
X1568468Y820160D01*
X1567886Y817988D01*
Y815740D01*
X1568468Y813568D01*
X1569592Y811620D01*
X1571182Y810030D01*
X1573130Y808906D01*
X1575302Y808324D01*
X1575810D01*
X1616999Y767135D01*
X1618228Y765296D01*
X1627220Y756304D01*
Y755796D01*
X1627802Y753624D01*
X1628926Y751676D01*
X1630516Y750086D01*
X1632464Y748962D01*
X1634636Y748380D01*
X1636884D01*
X1639056Y748962D01*
X1641004Y750086D01*
X1642594Y751676D01*
X1643718Y753624D01*
X1644300Y755796D01*
Y758044D01*
X1643718Y760216D01*
X1642594Y762164D01*
X1641004Y763754D01*
X1639056Y764878D01*
X1636884Y765460D01*
X1636376D01*
X1628613Y773223D01*
X1627384Y775062D01*
X1584966Y817480D01*
Y817988D01*
X1584384Y820160D01*
X1583260Y822108D01*
X1581670Y823698D01*
X1579722Y824822D01*
X1577550Y825404D01*
D02*
G37*
G36*
X1552550D02*
X1550302D01*
X1548130Y824822D01*
X1546182Y823698D01*
X1544592Y822108D01*
X1543468Y820160D01*
X1542886Y817988D01*
Y815740D01*
X1543468Y813568D01*
X1544592Y811620D01*
X1546182Y810030D01*
X1548130Y808906D01*
X1550302Y808324D01*
X1550810D01*
X1559343Y799791D01*
X1559420Y799400D01*
X1560824Y797300D01*
X1601820Y756304D01*
Y755796D01*
X1602402Y753624D01*
X1603526Y751676D01*
X1605116Y750086D01*
X1607064Y748962D01*
X1609236Y748380D01*
X1611484D01*
X1613656Y748962D01*
X1615604Y750086D01*
X1617194Y751676D01*
X1618318Y753624D01*
X1618900Y755796D01*
Y758044D01*
X1618318Y760216D01*
X1617194Y762164D01*
X1615604Y763754D01*
X1613656Y764878D01*
X1611484Y765460D01*
X1610976D01*
X1571461Y804975D01*
X1571384Y805366D01*
X1569980Y807466D01*
X1559966Y817480D01*
Y817988D01*
X1559384Y820160D01*
X1558260Y822108D01*
X1556670Y823698D01*
X1554722Y824822D01*
X1552550Y825404D01*
D02*
G37*
G36*
X1561409Y755240D02*
X1554178D01*
Y748009D01*
X1556205Y748552D01*
X1558152Y749676D01*
X1559742Y751266D01*
X1560866Y753214D01*
X1561409Y755240D01*
D02*
G37*
G36*
X1551638D02*
X1544407D01*
X1544950Y753214D01*
X1546075Y751266D01*
X1547665Y749676D01*
X1549612Y748552D01*
X1551638Y748009D01*
Y755240D01*
D02*
G37*
G36*
X1527550Y825404D02*
X1525302D01*
X1523130Y824822D01*
X1521182Y823698D01*
X1519592Y822108D01*
X1518468Y820160D01*
X1517886Y817988D01*
Y815740D01*
X1518468Y813568D01*
X1519592Y811620D01*
X1519952Y811261D01*
Y787212D01*
X1520445Y784734D01*
X1521034Y783853D01*
Y762113D01*
X1520675Y761754D01*
X1519550Y759806D01*
X1518968Y757634D01*
Y755386D01*
X1519550Y753214D01*
X1520675Y751266D01*
X1522265Y749676D01*
X1524212Y748552D01*
X1526384Y747970D01*
X1528633D01*
X1530805Y748552D01*
X1532752Y749676D01*
X1534342Y751266D01*
X1535466Y753214D01*
X1536048Y755386D01*
Y757634D01*
X1535466Y759806D01*
X1534342Y761754D01*
X1533983Y762113D01*
Y786130D01*
X1533490Y788608D01*
X1532901Y789490D01*
Y811261D01*
X1533260Y811620D01*
X1534384Y813568D01*
X1534966Y815740D01*
Y817988D01*
X1534384Y820160D01*
X1533260Y822108D01*
X1531670Y823698D01*
X1529722Y824822D01*
X1527550Y825404D01*
D02*
G37*
G36*
X1502550D02*
X1500302D01*
X1498130Y824822D01*
X1496182Y823698D01*
X1494592Y822108D01*
X1493468Y820160D01*
X1492886Y817988D01*
Y815740D01*
X1493468Y813568D01*
X1494592Y811620D01*
X1494952Y811261D01*
Y786812D01*
X1495444Y784335D01*
X1495634Y784051D01*
Y762113D01*
X1495275Y761754D01*
X1494150Y759806D01*
X1493568Y757634D01*
Y755386D01*
X1494150Y753214D01*
X1495275Y751266D01*
X1496865Y749676D01*
X1498812Y748552D01*
X1500984Y747970D01*
X1503233D01*
X1505405Y748552D01*
X1507352Y749676D01*
X1508942Y751266D01*
X1510066Y753214D01*
X1510648Y755386D01*
Y757634D01*
X1510066Y759806D01*
X1508942Y761754D01*
X1508583Y762113D01*
Y786130D01*
X1508090Y788608D01*
X1507900Y788891D01*
Y811261D01*
X1508260Y811620D01*
X1509384Y813568D01*
X1509966Y815740D01*
Y817988D01*
X1509384Y820160D01*
X1508260Y822108D01*
X1506670Y823698D01*
X1504722Y824822D01*
X1502550Y825404D01*
D02*
G37*
G36*
X1477550D02*
X1475302D01*
X1473130Y824822D01*
X1471182Y823698D01*
X1469592Y822108D01*
X1468468Y820160D01*
X1467886Y817988D01*
Y815740D01*
X1468468Y813568D01*
X1469592Y811620D01*
X1469951Y811261D01*
Y786666D01*
X1470234Y785247D01*
Y765050D01*
X1468168D01*
Y747970D01*
X1485248D01*
Y765050D01*
X1483183D01*
Y786384D01*
X1482900Y787804D01*
Y811261D01*
X1483260Y811620D01*
X1484384Y813568D01*
X1484966Y815740D01*
Y817988D01*
X1484384Y820160D01*
X1483260Y822108D01*
X1481670Y823698D01*
X1479722Y824822D01*
X1477550Y825404D01*
D02*
G37*
%LPD*%
G36*
X1225906Y1031126D02*
X1223806Y1029722D01*
X1190644Y996560D01*
X1190136D01*
X1187964Y995978D01*
X1186016Y994854D01*
X1185954Y994791D01*
X1184780Y995277D01*
Y1012806D01*
X1184288Y1015284D01*
X1182884Y1017384D01*
X1179555Y1020714D01*
Y1029320D01*
X1182620D01*
Y1032386D01*
X1225731D01*
X1225906Y1031126D01*
D02*
G37*
G36*
X1306180Y1075160D02*
X1325260D01*
Y1077226D01*
X1355694D01*
X1426342Y1006577D01*
X1425856Y1005404D01*
X1425302D01*
X1423130Y1004822D01*
X1421182Y1003698D01*
X1419592Y1002108D01*
X1418468Y1000160D01*
X1417886Y997988D01*
Y995740D01*
X1418468Y993568D01*
X1419230Y992248D01*
X1418501Y990978D01*
X1409350D01*
X1408622Y992248D01*
X1409384Y993568D01*
X1409966Y995740D01*
Y997988D01*
X1409384Y1000160D01*
X1408260Y1002108D01*
X1406670Y1003698D01*
X1404722Y1004822D01*
X1402550Y1005404D01*
X1400302D01*
X1398130Y1004822D01*
X1396182Y1003698D01*
X1394592Y1002108D01*
X1393468Y1000160D01*
X1392886Y997988D01*
Y995740D01*
X1393468Y993568D01*
X1394230Y992248D01*
X1393501Y990978D01*
X1384350D01*
X1383622Y992248D01*
X1384384Y993568D01*
X1384966Y995740D01*
Y997988D01*
X1384384Y1000160D01*
X1383260Y1002108D01*
X1381670Y1003698D01*
X1379722Y1004822D01*
X1377550Y1005404D01*
X1375302D01*
X1373130Y1004822D01*
X1371182Y1003698D01*
X1369592Y1002108D01*
X1368468Y1000160D01*
X1367886Y997988D01*
Y995740D01*
X1368468Y993568D01*
X1369230Y992248D01*
X1368501Y990978D01*
X1300622D01*
X1292120Y999480D01*
Y1017920D01*
X1284414D01*
X1284179Y1019078D01*
X1284203Y1019190D01*
X1286262Y1020566D01*
X1302264Y1036568D01*
X1303668Y1038668D01*
X1304160Y1041146D01*
Y1064260D01*
X1303668Y1066738D01*
X1302264Y1068838D01*
X1297184Y1073918D01*
X1295084Y1075322D01*
X1292606Y1075814D01*
X1276294D01*
X1275488Y1076796D01*
X1275595Y1077332D01*
Y1090280D01*
X1294660D01*
Y1093346D01*
X1300480D01*
X1302958Y1093838D01*
X1303537Y1094225D01*
X1306180D01*
Y1075160D01*
D02*
G37*
G36*
X1242002Y917493D02*
X1241516Y916320D01*
X1225020D01*
Y902859D01*
X1198535D01*
X1198289Y903454D01*
X1198124Y904129D01*
X1199218Y906024D01*
X1199800Y908196D01*
Y908704D01*
X1216294Y925198D01*
X1234298D01*
X1242002Y917493D01*
D02*
G37*
%LPC*%
G36*
X863440Y812076D02*
X851710D01*
Y798680D01*
X877939D01*
X877606Y801206D01*
X876141Y804743D01*
X873810Y807780D01*
X870773Y810111D01*
X867236Y811576D01*
X863440Y812076D01*
D02*
G37*
G36*
X849170D02*
X837440D01*
X833645Y811576D01*
X830107Y810111D01*
X827070Y807780D01*
X824740Y804743D01*
X823275Y801206D01*
X822942Y798680D01*
X849170D01*
Y812076D01*
D02*
G37*
G36*
X921795Y775700D02*
X919085D01*
X916468Y774999D01*
X914122Y773644D01*
X912206Y771728D01*
X910851Y769382D01*
X910150Y766765D01*
Y764055D01*
X910851Y761438D01*
X912206Y759092D01*
X914122Y757176D01*
X916468Y755821D01*
X919085Y755120D01*
X921795D01*
X924412Y755821D01*
X926758Y757176D01*
X928674Y759092D01*
X930029Y761438D01*
X930730Y764055D01*
Y766765D01*
X930029Y769382D01*
X928674Y771728D01*
X926758Y773644D01*
X924412Y774999D01*
X921795Y775700D01*
D02*
G37*
G36*
X699380Y824950D02*
X677300D01*
Y823385D01*
X637840D01*
X635363Y822892D01*
X633262Y821488D01*
X598824Y787050D01*
X590900D01*
Y769970D01*
X607980D01*
Y777894D01*
X640522Y810436D01*
X677300D01*
Y808870D01*
X687224D01*
X695971Y800123D01*
X695485Y798950D01*
X677300D01*
Y782870D01*
X696835D01*
X703876Y775828D01*
Y769213D01*
X696114Y761450D01*
X677300D01*
Y759885D01*
X668782D01*
X666304Y759392D01*
X664204Y757988D01*
X652846Y746630D01*
X606697D01*
X606211Y747804D01*
X606274Y747866D01*
X607398Y749814D01*
X607980Y751986D01*
Y754234D01*
X607398Y756406D01*
X606274Y758354D01*
X604684Y759944D01*
X602736Y761068D01*
X600564Y761650D01*
X598316D01*
X596144Y761068D01*
X594196Y759944D01*
X593837Y759584D01*
X581914D01*
X579436Y759092D01*
X577336Y757688D01*
X572256Y752608D01*
X570852Y750508D01*
X570360Y748030D01*
Y701040D01*
X570852Y698562D01*
X572256Y696462D01*
X609386Y659332D01*
X611487Y657928D01*
X613964Y657435D01*
X677300D01*
Y655870D01*
X699380D01*
Y671950D01*
X677300D01*
Y670384D01*
X616646D01*
X583308Y703722D01*
Y710420D01*
X584482Y710906D01*
X591123Y704265D01*
X590900Y703434D01*
Y701186D01*
X591482Y699014D01*
X592606Y697066D01*
X594196Y695476D01*
X596144Y694352D01*
X598316Y693770D01*
X600564D01*
X601395Y693993D01*
X610056Y685332D01*
X612156Y683929D01*
X614634Y683436D01*
X677300D01*
Y681870D01*
X699380D01*
Y697950D01*
X677300D01*
Y696385D01*
X617316D01*
X606447Y707253D01*
X606274Y707554D01*
X604684Y709144D01*
X604383Y709317D01*
X594419Y719281D01*
X595199Y720298D01*
X596144Y719752D01*
X598316Y719170D01*
X600564D01*
X602736Y719752D01*
X604684Y720876D01*
X605005Y721198D01*
X644147Y720936D01*
X644168Y720940D01*
X644190Y720935D01*
X677300D01*
Y719370D01*
X699380D01*
Y720935D01*
X760758D01*
X765150Y716544D01*
Y714055D01*
X765851Y711438D01*
X767206Y709092D01*
X769122Y707176D01*
X771468Y705821D01*
X774085Y705120D01*
X776795D01*
X779412Y705821D01*
X781758Y707176D01*
X783674Y709092D01*
X785029Y711438D01*
X785730Y714055D01*
Y716765D01*
X785029Y719382D01*
X783674Y721728D01*
X781758Y723644D01*
X779412Y724998D01*
X776795Y725700D01*
X774306D01*
X769535Y730471D01*
X770315Y731487D01*
X771468Y730821D01*
X774085Y730120D01*
X776795D01*
X779412Y730821D01*
X781758Y732176D01*
X783674Y734092D01*
X785029Y736438D01*
X785730Y739055D01*
Y741765D01*
X785029Y744382D01*
X783674Y746728D01*
X781758Y748644D01*
X779412Y749999D01*
X776795Y750700D01*
X774306D01*
X771059Y753947D01*
X771545Y755120D01*
X785730D01*
Y775700D01*
X780033D01*
X780018Y775722D01*
X777918Y777126D01*
X775440Y777618D01*
X736788D01*
X699380Y815026D01*
Y824950D01*
D02*
G37*
G36*
X921795Y725700D02*
X919085D01*
X916468Y724998D01*
X914122Y723644D01*
X912206Y721728D01*
X910851Y719382D01*
X910150Y716765D01*
Y714055D01*
X910851Y711438D01*
X912206Y709092D01*
X914122Y707176D01*
X916468Y705821D01*
X919085Y705120D01*
X921795D01*
X924412Y705821D01*
X926758Y707176D01*
X928674Y709092D01*
X930029Y711438D01*
X930730Y714055D01*
Y716765D01*
X930029Y719382D01*
X928674Y721728D01*
X926758Y723644D01*
X924412Y724998D01*
X921795Y725700D01*
D02*
G37*
G36*
X877939Y796140D02*
X850440D01*
X822942D01*
X823275Y793614D01*
X824740Y790077D01*
X827070Y787040D01*
X830107Y784709D01*
X833645Y783244D01*
X837440Y782745D01*
X843966D01*
Y698075D01*
X837440D01*
X833645Y697576D01*
X830107Y696111D01*
X827070Y693780D01*
X824740Y690743D01*
X823275Y687206D01*
X822942Y684680D01*
X850440D01*
X877939D01*
X877606Y687206D01*
X876141Y690743D01*
X873810Y693780D01*
X870773Y696111D01*
X867236Y697576D01*
X863440Y698075D01*
X856915D01*
Y782745D01*
X863440D01*
X867236Y783244D01*
X870773Y784709D01*
X873810Y787040D01*
X876141Y790077D01*
X877606Y793614D01*
X877939Y796140D01*
D02*
G37*
G36*
Y682140D02*
X851710D01*
Y668744D01*
X863440D01*
X867236Y669244D01*
X870773Y670709D01*
X873810Y673040D01*
X876141Y676077D01*
X877606Y679614D01*
X877939Y682140D01*
D02*
G37*
G36*
X849170D02*
X822942D01*
X823275Y679614D01*
X824740Y676077D01*
X827070Y673040D01*
X830107Y670709D01*
X833645Y669244D01*
X837440Y668744D01*
X849170D01*
Y682140D01*
D02*
G37*
%LPD*%
G36*
X729528Y766566D02*
X731629Y765162D01*
X734106Y764670D01*
X765150D01*
Y760640D01*
X763880Y759598D01*
X762440Y759885D01*
X714520D01*
X714034Y761058D01*
X714929Y761953D01*
X716332Y764053D01*
X716825Y766531D01*
Y777473D01*
X718095Y777999D01*
X729528Y766566D01*
D02*
G37*
G36*
X765150Y741544D02*
Y739055D01*
X765851Y736438D01*
X767206Y734092D01*
X767308Y733990D01*
X766498Y733003D01*
X765918Y733391D01*
X763440Y733884D01*
X699380D01*
Y735450D01*
X677300D01*
Y733884D01*
X659857D01*
X659472Y735154D01*
X660106Y735578D01*
X671464Y746936D01*
X677300D01*
Y745370D01*
X699380D01*
Y746936D01*
X759758D01*
X765150Y741544D01*
D02*
G37*
D10*
X1315720Y1100700D02*
D03*
Y1083700D02*
D03*
X695960Y1107930D02*
D03*
Y1090930D02*
D03*
X731520Y1091710D02*
D03*
Y1108710D02*
D03*
X767080Y1090930D02*
D03*
Y1107930D02*
D03*
X830580Y1090050D02*
D03*
Y1107050D02*
D03*
X876300Y1112030D02*
D03*
Y1129030D02*
D03*
D11*
X1269120Y1099820D02*
D03*
X1286120D02*
D03*
X1268240Y1054100D02*
D03*
X1285240D02*
D03*
X1266580Y1008380D02*
D03*
X1283580D02*
D03*
X1104900Y1094740D02*
D03*
X1121900D02*
D03*
X1233560Y906780D02*
D03*
X1250560D02*
D03*
X1286900Y830580D02*
D03*
X1303900D02*
D03*
X788180Y1159510D02*
D03*
X805180D02*
D03*
D12*
X1656036Y762254D02*
X1661160D01*
X1268240Y1064260D02*
Y1076452D01*
Y1054100D02*
Y1064260D01*
X1541780Y1124870D02*
Y1214120D01*
X1536700Y1119790D02*
X1541780Y1124870D01*
X1163720Y1048220D02*
Y1089660D01*
Y1048220D02*
X1173080Y1038860D01*
X1528916Y974354D02*
X1551426Y996864D01*
X1439066Y974354D02*
X1528916D01*
X1428916Y984504D02*
X1439066Y974354D01*
X1297940Y984504D02*
X1428916D01*
X1283580Y998864D02*
X1297940Y984504D01*
X1283580Y998864D02*
Y1008380D01*
X1123080Y1038860D02*
X1165860Y996080D01*
Y988020D02*
Y996080D01*
X1115060Y810260D02*
Y909320D01*
Y810260D02*
X1125220Y800100D01*
X1293740D01*
X1303900Y810260D01*
Y830580D01*
X1266580Y979796D02*
Y1008380D01*
Y979796D02*
X1303900Y942476D01*
Y830580D02*
Y942476D01*
X1268240Y1064260D02*
X1273320Y1069340D01*
X1292606D01*
X1297686Y1064260D01*
Y1041146D02*
Y1064260D01*
X1281684Y1025144D02*
X1297686Y1041146D01*
X1228384Y1025144D02*
X1281684D01*
X1191260Y988020D02*
X1228384Y1025144D01*
X1213720Y1089660D02*
X1244962Y1120902D01*
X1280278D01*
X1286120Y1115060D01*
Y1099820D02*
Y1115060D01*
X1412240Y1061734D02*
Y1119790D01*
Y1061734D02*
X1451426Y1022548D01*
Y996864D02*
Y1022548D01*
X1503480Y1019810D02*
X1526426Y996864D01*
X1480312Y1019810D02*
X1503480D01*
X1463802Y1003300D02*
X1480312Y1019810D01*
X1463802Y987816D02*
Y1003300D01*
X1460500Y984514D02*
X1463802Y987816D01*
X1445260Y984514D02*
X1460500D01*
X1438776Y990998D02*
X1445260Y984514D01*
X1438776Y990998D02*
Y1003300D01*
X1358376Y1083700D02*
X1438776Y1003300D01*
X1315720Y1083700D02*
X1358376D01*
X1661160Y756920D02*
Y762254D01*
X1601426Y816864D02*
X1656036Y762254D01*
X1704086Y723646D02*
X1737360Y756920D01*
X1684020Y723646D02*
X1704086D01*
X1673860Y733806D02*
X1684020Y723646D01*
X1673860Y733806D02*
Y899430D01*
X1576426Y996864D02*
X1673860Y899430D01*
X1250560Y906780D02*
Y918092D01*
X1236980Y931672D02*
X1250560Y918092D01*
X1213612Y931672D02*
X1236980D01*
X1191260Y909320D02*
X1213612Y931672D01*
X1233560Y899160D02*
Y906780D01*
X1230784Y896384D02*
X1233560Y899160D01*
X1153396Y896384D02*
X1230784D01*
X1140460Y909320D02*
X1153396Y896384D01*
X1576426Y816864D02*
X1622806Y770484D01*
Y769874D02*
Y770484D01*
Y769874D02*
X1635760Y756920D01*
X1551426Y816864D02*
X1565402Y802888D01*
Y801878D02*
Y802888D01*
Y801878D02*
X1610360Y756920D01*
X1140460Y886460D02*
Y909320D01*
Y886460D02*
X1178560Y848360D01*
X1501140Y1094390D02*
X1562100D01*
X1490980Y1104550D02*
X1501140Y1094390D01*
X1490980Y1104550D02*
Y1214120D01*
X1694434Y774446D02*
X1711960Y756920D01*
X1694434Y774446D02*
Y903856D01*
X1601426Y996864D02*
X1694434Y903856D01*
X1247140Y830580D02*
X1286900D01*
X1229360Y848360D02*
X1247140Y830580D01*
X1412240Y1119790D02*
Y1186180D01*
X1440180Y1214120D01*
X1071880Y1094740D02*
X1104900D01*
X1061720Y1084580D02*
X1071880Y1094740D01*
X1061720Y914400D02*
Y1084580D01*
X1437640Y1094390D02*
Y1186180D01*
X1465580Y1214120D01*
X1173080Y1018032D02*
Y1038860D01*
Y1018032D02*
X1178306Y1012806D01*
Y922274D02*
Y1012806D01*
Y922274D02*
X1191260Y909320D01*
X1285240Y1043940D02*
Y1054100D01*
X1280160Y1038860D02*
X1285240Y1043940D01*
X1173080Y1038860D02*
X1280160D01*
X1476426Y786666D02*
Y816864D01*
Y786666D02*
X1476708Y786384D01*
Y756510D02*
Y786384D01*
X1501426Y786812D02*
Y816864D01*
Y786812D02*
X1502108Y786130D01*
Y756510D02*
Y786130D01*
X1526426Y787212D02*
Y816864D01*
Y787212D02*
X1527508Y786130D01*
Y756510D02*
Y786130D01*
X1301360Y1100700D02*
X1315720D01*
X1300480Y1099820D02*
X1301360Y1100700D01*
X1286120Y1099820D02*
X1300480D01*
X1269120Y1077332D02*
Y1099820D01*
X1268240Y1076452D02*
X1269120Y1077332D01*
X1121900Y1067218D02*
Y1094740D01*
Y1067218D02*
X1123080Y1066038D01*
Y1038860D02*
Y1066038D01*
X645160Y1098550D02*
X665734D01*
X675114Y1107930D01*
X805180Y1159510D02*
Y1177290D01*
Y1195070D01*
X777240Y930910D02*
Y959104D01*
X779220Y961084D01*
Y989330D01*
X482880Y963470D02*
Y1003046D01*
X482600Y1003326D02*
X482880Y1003046D01*
X482600Y1003326D02*
Y1043070D01*
X682498Y1104628D02*
X685800Y1107930D01*
X682498Y1053032D02*
Y1104628D01*
Y1053032D02*
X697940Y1037590D01*
X861440Y964310D02*
Y1057910D01*
X828040Y930910D02*
X861440Y964310D01*
X703580Y1189990D02*
X772940D01*
X788180Y1174750D01*
Y1159510D02*
Y1174750D01*
X863600Y1129030D02*
X876300D01*
X853440Y1118870D02*
X863600Y1129030D01*
X853440Y1077468D02*
Y1118870D01*
X821690Y1045718D02*
X853440Y1077468D01*
X821690Y949960D02*
Y1045718D01*
X802640Y930910D02*
X821690Y949960D01*
X622300Y1126490D02*
Y1156970D01*
X594360Y1098550D02*
X622300Y1126490D01*
X767080Y1107930D02*
Y1118108D01*
X779526Y1130554D01*
X805180Y1148588D02*
Y1159510D01*
X802640Y1146048D02*
X805180Y1148588D01*
X765302Y1146048D02*
X802640D01*
X754380Y1156970D02*
X765302Y1146048D01*
X911860Y1139970D02*
Y1153870D01*
X883920Y1112030D02*
X911860Y1139970D01*
X876300Y1112030D02*
X883920D01*
X804418Y1090050D02*
X830580D01*
X804164Y1089796D02*
X804418Y1090050D01*
X804164Y963422D02*
Y1089796D01*
X790194Y949452D02*
X804164Y963422D01*
X790194Y923544D02*
Y949452D01*
Y923544D02*
X798068Y915670D01*
X812800D01*
X828040Y930910D01*
X695960Y1090930D02*
X707136D01*
X709676Y1093470D01*
Y1137666D01*
X728980Y1156970D01*
X817626Y1182116D02*
X830580Y1195070D01*
X817626Y1126236D02*
Y1182116D01*
X782320Y1090930D02*
X817626Y1126236D01*
X767080Y1090930D02*
X782320D01*
X876300Y1129030D02*
X881380Y1167130D01*
Y1195070D01*
X731520Y1108710D02*
X739140D01*
X741680Y1111250D01*
Y1162050D01*
X742950Y1163320D01*
Y1168400D01*
X683820Y989330D02*
X726440Y1031950D01*
Y1057910D01*
X594360Y1045770D02*
X602540Y1037590D01*
X594360Y1045770D02*
Y1098550D01*
X731520Y1091710D02*
X742950Y1088390D01*
Y971296D02*
Y1088390D01*
X735124Y963470D02*
X742950Y971296D01*
X642340Y963470D02*
X735124D01*
X602540Y1003270D02*
Y1037590D01*
Y1003270D02*
X642340Y963470D01*
X830580Y1169670D02*
X855980Y1195070D01*
X830580Y1107050D02*
Y1169670D01*
X911860Y1153870D02*
Y1207516D01*
X904240Y1215136D02*
X911860Y1207516D01*
X822960Y1215136D02*
X904240D01*
X805180Y1197356D02*
X822960Y1215136D01*
X753110Y1015440D02*
X779220Y989330D01*
X753110Y1015440D02*
Y1122426D01*
X754380Y1123696D01*
Y1156970D01*
X675114Y1107930D02*
X685800D01*
X695960D01*
X805180Y1195070D02*
Y1197356D01*
X697230Y753410D02*
X762440D01*
X688340D02*
X697230D01*
X600837Y703707D02*
X614634Y689910D01*
X586994Y717550D02*
X600837Y703707D01*
X734106Y771144D02*
X775440D01*
X688340Y727410D02*
X763440D01*
X775440Y715410D01*
X644190Y727410D02*
X688340D01*
X599440Y727710D02*
X644190Y727410D01*
X614634Y689910D02*
X649940D01*
X599440Y702310D02*
X600837Y703707D01*
X762440Y753410D02*
X775440Y740410D01*
X649940Y689910D02*
X688340D01*
X586994Y717550D02*
Y732790D01*
X594360Y740156D01*
X655528D01*
X668782Y753410D01*
X688340D01*
X637840Y816910D02*
X688340D01*
X599440Y778510D02*
X637840Y816910D01*
X613964Y663910D02*
X688340D01*
X576834Y701040D02*
X613964Y663910D01*
X576834Y701040D02*
Y748030D01*
X581914Y753110D01*
X599440D01*
X775440Y765410D02*
Y771144D01*
X688340Y816910D02*
X734106Y771144D01*
X688340Y790910D02*
X697951D01*
X710351Y778510D01*
Y766531D02*
Y778510D01*
X697230Y753410D02*
X710351Y766531D01*
X850440Y683410D02*
Y797410D01*
D13*
X688340Y790910D02*
D03*
Y816910D02*
D03*
Y727410D02*
D03*
Y753410D02*
D03*
Y663910D02*
D03*
Y689910D02*
D03*
D14*
X1354922Y969042D02*
D03*
Y944042D02*
D03*
Y919042D02*
D03*
Y894042D02*
D03*
Y869042D02*
D03*
Y844042D02*
D03*
X1651426Y996864D02*
D03*
X1626426D02*
D03*
X1601426D02*
D03*
X1576426D02*
D03*
X1551426D02*
D03*
X1526426D02*
D03*
X1501426D02*
D03*
X1476426D02*
D03*
X1451426D02*
D03*
X1426426D02*
D03*
X1401426D02*
D03*
X1376426D02*
D03*
X1651426Y816864D02*
D03*
X1626426D02*
D03*
X1601426D02*
D03*
X1576426D02*
D03*
X1551426D02*
D03*
X1526426D02*
D03*
X1501426D02*
D03*
X1476426D02*
D03*
X1451426D02*
D03*
X1426426D02*
D03*
X1401426D02*
D03*
X1191260Y988020D02*
D03*
X1165860D02*
D03*
X1140460D02*
D03*
X1115060D02*
D03*
X1191260Y909320D02*
D03*
X1165860D02*
D03*
X1140460D02*
D03*
X1567180Y1214120D02*
D03*
X1541780D02*
D03*
X1465580D02*
D03*
X1490980D02*
D03*
X1516380D02*
D03*
X1061720Y838200D02*
D03*
Y863600D02*
D03*
Y889000D02*
D03*
X1203960Y848360D02*
D03*
X1178560D02*
D03*
X1552908Y756510D02*
D03*
X1527508D02*
D03*
X1502108D02*
D03*
X1610360Y756920D02*
D03*
X1635760D02*
D03*
X1711960D02*
D03*
X1686560D02*
D03*
X1661160D02*
D03*
X805180Y1195070D02*
D03*
X830580D02*
D03*
X855980D02*
D03*
X777240Y930910D02*
D03*
X802640D02*
D03*
X828040D02*
D03*
X599440Y702310D02*
D03*
Y727710D02*
D03*
Y753110D02*
D03*
D15*
X1376426Y816864D02*
D03*
X1115060Y909320D02*
D03*
X1061720Y914400D02*
D03*
X599440Y778510D02*
D03*
D16*
X1440180Y1214120D02*
D03*
X1229360Y848360D02*
D03*
X1476708Y756510D02*
D03*
X1737360Y756920D02*
D03*
X881380Y1195070D02*
D03*
D17*
X1265200Y1181560D02*
D03*
X517880Y963470D02*
D03*
X642340D02*
D03*
D18*
X1300200Y1181560D02*
D03*
X482880Y963470D02*
D03*
X607340D02*
D03*
D19*
X1412240Y1119790D02*
D03*
X1437640Y1094390D02*
D03*
X1536700Y1119790D02*
D03*
X1562100Y1094390D02*
D03*
D20*
X1463040Y1119790D02*
D03*
X1587500D02*
D03*
D21*
X1213720Y1089660D02*
D03*
X1173080Y1038860D02*
D03*
D22*
X1163720Y1089660D02*
D03*
X1123080Y1038860D02*
D03*
X530860Y1043070D02*
D03*
X482600D02*
D03*
D23*
X697940Y1037590D02*
D03*
X602540D02*
D03*
X683820Y989330D02*
D03*
X779220D02*
D03*
X911860Y1058470D02*
D03*
Y1153870D02*
D03*
X920440Y715410D02*
D03*
Y765410D02*
D03*
X775440Y715410D02*
D03*
Y740410D02*
D03*
D24*
X728980Y1156970D02*
D03*
X678180Y1189990D02*
D03*
X622300Y1156970D02*
D03*
D25*
X742950Y1168400D02*
D03*
X754380Y1156970D02*
D03*
X692150Y1201420D02*
D03*
X703580Y1189990D02*
D03*
X636270Y1168400D02*
D03*
X647700Y1156970D02*
D03*
D26*
X594360Y1098550D02*
D03*
X619760D02*
D03*
D27*
X645160D02*
D03*
D28*
X530860Y1093070D02*
D03*
X482600D02*
D03*
D29*
X861440Y1057910D02*
D03*
D30*
X726440D02*
D03*
D31*
X779526Y1130554D02*
D03*
D32*
X775440Y765410D02*
D03*
D33*
X850440Y683410D02*
D03*
Y797410D02*
D03*
M02*
